<?xml version="1.0" encoding="UTF-8"?>
<svg id="Layer_2" data-name="Layer 2" xmlns="http://www.w3.org/2000/svg" viewBox="0 0 695.06 276.36">
  <defs>
    <style>
      .cls-1 {
        letter-spacing: 0em;
      }

      .cls-1, .cls-2, .cls-3, .cls-4, .cls-5, .cls-6, .cls-7 {
        font-family: Arial-BoldMT, Arial;
        font-weight: 700;
      }

      .cls-2, .cls-8 {
        letter-spacing: .03em;
      }

      .cls-3 {
        letter-spacing: -.04em;
      }

      .cls-9 {
        fill: #412c76;
      }

      .cls-9, .cls-10, .cls-11, .cls-12 {
        stroke-width: 0px;
      }

      .cls-4 {
        letter-spacing: 0em;
      }

      .cls-13 {
        font-size: 26.97px;
      }

      .cls-13, .cls-10 {
        fill: #fff;
      }

      .cls-14, .cls-7 {
        letter-spacing: .03em;
      }

      .cls-14, .cls-8 {
        font-family: ArialMT, Arial;
      }

      .cls-5 {
        letter-spacing: .01em;
      }

      .cls-11 {
        fill: #edac32;
      }

      .cls-6 {
        letter-spacing: .01em;
      }

      .cls-12 {
        fill: #139f49;
      }
    </style>
  </defs>
  <g>
    <path class="cls-12" d="M445.79,66.5c4.37-.16,7.4,2.25,9.29,5.63,1.6,2.86.41,5.98-1.39,8.63-3.8,5.57-9.08,9.6-14.41,13.54-10.2,7.55-20.39,15.11-30.78,22.39-6.6,4.63-13.88,7.88-22.02,8.91-2.53.32-5.09.71-7.5,1.5-3.43,1.13-6.22-.02-8.3-2.39-1.94-2.22-1.27-5.1-.24-7.65,2.57-6.35,6.98-11.28,12.67-14.89,13.25-8.38,25.74-18.05,40.49-23.96,3.24-1.3,5.99-3.75,8.75-6.02,3.88-3.19,8.34-5.28,13.44-5.69Z"/>
    <path class="cls-9" d="M160.36,117.97c-2.58.09-5.51.36-6.81-2.33-1.54-3.2-1.3-6.75.37-9.91,3.55-6.7,9.08-11.79,15.51-15.34,6.93-3.82,12.66-9.3,19.6-12.97,4.46-2.36,9.16-4.29,13.65-6.61,3.58-1.85,7-3.96,10.22-6.44,5.25-4.05,10.6-7.98,17.9-6.75,5.48.92,8.22,5.76,6.61,10.9-2.28,7.32-8.52,10.89-13.89,15.15-8.74,6.94-17.86,13.4-26.8,20.1-10.81,8.11-22.89,12.94-36.37,14.2Z"/>
    <path class="cls-11" d="M289.78,45.07c-8.64.12-10.54-2.95-7.71-8.84,2.66-5.55,7.22-9.29,12.31-12.11,5.01-2.77,9.31-6.53,14.3-9.29,3.55-1.96,7.17-3.72,10.88-5.29,4.62-1.96,8.09-5.63,12.39-8.07,3.38-1.92,7.07-1.72,10.36-.75,4.3,1.26,5.07,6.17,2.17,10.09-4.86,6.56-11.62,10.95-18.15,15.46-5.65,3.89-10.84,8.4-16.79,11.89-6.78,3.98-13.99,6.25-19.75,6.9Z"/>
    <path class="cls-9" d="M237.1,165.31c-6.29.63-10.38-3.84-14.91-6.85-5.42-3.59-11.1-6.54-16.92-9.3-6.44-3.06-12.3-7.12-17.87-11.41-7.76-5.97-6.83-14.1,1.28-19.83,9.11-6.44,18.36-12.69,27.3-19.39,4.56-3.42,8.53-7.83,14-10.2,6.12-2.65,12.09-2.34,18.16-.28,5.32,1.8,9.01,6.06,13.54,9,8.62,5.59,16.31,12.4,24.83,18.09,2.47,1.65,4.25,4.01,5.94,6.39,2.44,3.45,2.15,9.68-.73,12.79-6.04,6.53-12.48,12.71-20.74,16.35-3.42,1.51-7.65,1.3-10.45,4.19-2.52,2.62-5.36,4.68-8.65,6.08-4.75,2.03-9.31,4.77-14.78,4.37ZM252.52,123.5c-.68,1.73-.23,3.53-.28,5.3-.16,5.3-2.85,8.03-8.08,6.98-11.59-2.32-19.06-10.54-11.72-22.86.38-.65,1.21-1.19.63-1.95-.83-1.08-1.51-.03-2.23.37-4.15,2.3-7.27,5.99-11.16,8.5-4.31,2.77-5.32,6.1-.67,11.45,3.66,4.21,9.15,5.79,13.73,8.66,3.97,2.49,7.74,2.57,11.89,1.29.5-.05.99-.11,1.49-.16.61,0,1.48.27,1.8-.03,3.86-3.6,8.86-5.35,13.15-8.22,5.55-3.71,6.28-8.99,1.82-12.03-4.02-2.74-7.4-6.11-10.93-9.4-4.57-4.27-9.35-8.62-16.24-3.93-.71.48-1.89.51-1.63,1.67.28,1.23,1.43.81,2.24.72,3.43-.37,6.33.26,9.15,2.67,3.13,2.68,4.39,6.44,6.8,9.48.08.49.16.99.24,1.48Z"/>
    <path class="cls-9" d="M242.38,194.39c-.03,4.64-3.49,7-7.97,5.68-6.97-2.05-12.58-6.53-18.49-10.38-11.79-7.68-22.84-16.34-33.39-25.69-5.27-4.67-11.73-7.99-17.36-12.29-5.32-4.07-10.81-8.07-13.38-14.78-1.92-5.01.5-8.4,5.7-8.4,8.07,0,13.54,5.05,19.68,9.06,13.51,8.8,25.67,19.44,39.26,28.16,7.34,4.71,14.27,10.22,20.49,16.44,3.94,3.93,5.48,7.76,5.45,12.21Z"/>
    <path class="cls-9" d="M257.97,194.34c-2.87-.18-5.97.34-8.13-2.27-3.74-4.54-3.33-6.63.68-11.11,8.97-10.01,19.51-18.15,30.97-24.88,9.64-5.66,18.63-12.22,28.12-18.05,3.72-2.28,8.02-3.81,12.6-4.03,3.39-.16,4.9,1.17,4.73,4.71-.43,8.91-4.88,15.62-12.09,20.11-9.44,5.88-17.35,13.65-26.32,20.06-6.78,4.84-13.35,10.06-20.85,13.83-3.01,1.51-6.35,1.81-9.72,1.65Z"/>
    <path class="cls-9" d="M317.78,113.78c-.02,8.34-4.01,10.48-11.53,7.62-6.75-2.56-10.86-8.29-16.56-12.03-13.48-8.83-25.73-19.33-38.83-28.67-4.57-3.25-5.27-8.77-6.23-13.9-.28-1.49.06-3.13-.37-4.56-.8-2.7.19-4.51,2.41-5.73,2.18-1.2,4.35-1,6.43.53,5.62,4.12,11.46,7.97,16.91,12.31,8.56,6.82,18.17,12.03,27.13,18.18,7.44,5.1,15.01,10.56,19.07,19.23,1.1,2.35,1.76,4.78,1.56,7.01Z"/>
    <path class="cls-12" d="M479.94,106.79c6.36,4.75,12.67,9.57,19.1,14.23,4.53,3.29,8.97,6.49,11.52,11.81,2.07,4.31.68,7.92-1.97,10.88-5,5.59-10.81,10.33-17.2,14.34-3.19,2.01-7.26,1.49-10.34,3.76-.39.29-1.12.21-1.41.55-5.62,6.66-13.94,8.4-21.34,11.84-4.92,2.29-8.96-.37-12.44-2.74-8.49-5.8-17.44-10.62-26.61-15.21-5.59-2.8-10.62-6.85-15.63-10.69-4.74-3.63-5.65-13.24,3.09-18.73,9.7-6.09,18.79-12.98,27.96-19.79,3.02-2.24,5.96-4.55,8.94-6.84,8.3-6.38,16.58-4.94,24.72-1.33,4.4,1.95,7.29,5.88,11.56,7.88,0,0,.03.03.03.03ZM457.36,152c2.55-.13,4.67.11,6.51-.97,5.57-3.25,11.29-6.3,16.61-9.94,5.14-3.52,5.09-7.77.09-11.3-4.39-3.1-8.15-6.84-11.99-10.52-4.85-4.67-11.16-6.49-15.15-3.59-6.56,4.76-12.78,9.98-19.12,15.06-.86.69-1.88,1.43-1.53,2.84.81,3.22,1.58,6.3,4.56,8.52,4.19,3.13,8.91,5.26,13.4,7.82,2.21,1.26,4.39,2.64,6.62,2.09Z"/>
    <path class="cls-12" d="M456.63,208.99c-5.61-.1-9.28-3.08-13.02-5.51-9.42-6.13-18.77-12.4-27.84-19.03-4.78-3.5-8.73-8.1-13.37-11.82-7.02-5.62-15.21-9.67-21.92-15.71-4.22-3.79-8.98-7.34-8.71-14.04.21-5.34,1.36-5.28,6.47-4.71,11.67,1.29,18.78,9.98,27.76,15.59,11.09,6.91,21.08,15.38,31.96,22.66,7.68,5.14,15.69,10.48,21.14,18.41,1.28,1.86,2.46,3.93,3.1,6.07,1.15,3.85-1.35,8.84-5.56,8.09Z"/>
    <path class="cls-12" d="M475.59,203.6c-6.24,0-8.69-1.75-9.97-6.58-.6-2.24.04-4.07,1.45-5.62,10.75-11.82,23.27-21.35,37.29-29.03,7.33-4.01,14-9.13,20.86-13.92,4.55-3.17,9.77-4.77,15.47-4.39,2.42.16,3.11,1.25,3.21,3.66.39,8.82-4.47,14.79-11.04,19.24-8.94,6.06-17.12,13.04-25.68,19.58-6.54,4.99-13.24,9.89-20.39,13.9-3.3,1.85-7.24,3.92-11.2,3.17Z"/>
    <path class="cls-10" d="M418.09,158.18c.08.09.17.19.25.28-.2.1-.4.22-.62.28-.05.01-.16-.17-.24-.27.2-.1.41-.2.61-.29Z"/>
    <path class="cls-11" d="M347.9,23.67c6-1.13,10.46,3.48,15.53,6.77,6.02,3.91,11.23,8.93,17.47,12.56,2.34,1.36,4.39,3.48,6.08,5.64,2.17,2.76,1.58,8.59-1.13,10.96-4.1,3.6-8.47,6.9-12.78,10.25-.67.52-1.63.79-2.49.9-3.3.41-5.96,2.14-8.4,4.14-4.43,3.63-9.62,5.42-15.09,6.49-4.05.79-7.62-1.12-10.54-3.45-6.63-5.28-14.81-7.71-21.71-12.41-2.82-1.93-5.73-3.78-8.27-6.05-3.3-2.94-2.34-8.71,1.63-12,5.77-4.79,12.68-7.95,18.3-12.93,3.7-3.28,8.25-5.37,11.81-8.91,2.27-2.26,5.65-1.98,9.59-1.95ZM366,50.6l-.12-.12c-4.1-6.86-15.12-13.83-19.02-12.03.04.11.06.27.14.32.31.21.64.38.95.57,5.49,3.35,9.4,7.72,9.33,14.6-.05,4.49-2.44,6.51-6.85,5.88-7.01-1.01-11.02-6.43-9.99-13.38.18-1.21.78-2.86-.36-3.6-1.54-.99-1.89,1.19-2.91,1.76-1.21.67-2.25,1.65-3.38,2.48-4.69,3.43-4.84,6.27-.47,10.11.95.83,1.96,1.74,3.11,2.18,4.16,1.56,7.52,5.17,12.53,4.56,6.75-.82,11.69-5.06,16.88-8.75,1.51-1.07,2.52-3,.14-4.6Z"/>
    <path class="cls-11" d="M350.75,102.65c-.07,3.96-1.87,5.52-5.8,4.72-3.14-.64-5.84-2.42-8.49-4.12-6.71-4.3-13.52-8.51-19.5-13.8-9.77-8.66-21.46-14.85-30.79-24.06-.54-.54-1.18-1.03-1.59-1.65-1.6-2.44-2.67-5.14-1.06-7.85,1.53-2.57,4-1.09,6.23-.95,3.42.23,6.04,2.12,8.58,3.9,8.83,6.18,17.28,12.93,26.26,18.87,6.78,4.49,13.41,9.15,19.59,14.37,3.18,2.69,6.44,5.8,6.56,10.58Z"/>
    <path class="cls-11" d="M362.9,103.01c-2.56-.14-4.69-.32-6.46-1.86-3.13-2.73-3.09-4.52-.42-7.67,8.19-9.66,18.82-16.01,29.52-22.36,3.46-2.05,7.22-3.72,10.18-6.58,3.42-3.3,7.88-4.55,12.24-5.87,3.89-1.18,5.9.89,5.21,4.84-1.15,6.55-5.14,11.1-10.54,14.32-7.34,4.39-13.31,10.53-20.37,15.23-5.25,3.49-9.95,7.96-16.34,9.49-1.11.26-2.25.35-3.01.47Z"/>
    <path class="cls-11" d="M398.82,49.49c-2.71-.18-6.09-3.06-9.25-5.88-6.27-5.6-14.01-9.18-20.15-14.8-5.54-5.07-13.14-7.84-16.77-15.06-1.51-3-1.28-6.25-1.25-9.29.03-2.97,4.17-4.25,6.84-2.39,7.18,5,14.17,10.28,21.47,15.09,6.01,3.96,12.29,7.47,17.85,12.12,4.41,3.69,8.11,7.67,8.84,13.7.5,4.14-1.52,6.56-7.58,6.51Z"/>
    <path class="cls-12" d="M535.53,123.4c.27,3.06-.56,5.97-3.25,7.28-3.5,1.7-7.22.86-10.68-.88-4.61-2.31-8.06-6.06-12.01-9.22-7.01-5.6-14.45-10.68-21.95-15.63-4.92-3.25-8.55-8.09-13.65-10.95-6.68-3.74-11.07-8.77-11.47-16.72-.06-1.26-.53-2.49-.74-3.75-.39-2.41-2.07-5.37.95-6.88,2.98-1.5,6.19-1.51,9.34.7,12.39,8.67,23.84,18.68,37.04,26.16,7.7,4.37,14.43,9.89,20.52,16.22,3.62,3.76,5.74,8.35,5.91,13.67Z"/>
    <path class="cls-12" d="M447.73,130.57c-.1-1.99.07-4.07,1.09-5.87,4.86-8.62,10.27-6.68,16.34-.26,4.17,4.41,4.76,10.48,3.41,16.53-.34,1.53-1,2.34-2.57,2.87-6.58,2.21-19.72-3.4-18.27-13.26Z"/>
  </g>
  <text class="cls-13" transform="translate(.04 233.84)"><tspan class="cls-14" x="0" y="0">A</tspan><tspan class="cls-2" x="18.8" y="0">SOCIACIÓN MEXICAN</tspan><tspan class="cls-1" x="317.31" y="0">A</tspan><tspan class="cls-2" x="336.59" y="0" xml:space="preserve"> DE HOTELES</tspan><tspan class="cls-5" x="525.35" y="0" xml:space="preserve"> Y</tspan><tspan class="cls-7" x="551.48" y="0" xml:space="preserve"> MOTELES</tspan><tspan class="cls-7" x="108.64" y="32.37">DE</tspan><tspan class="cls-6" x="147.73" y="32.37">L</tspan><tspan class="cls-2" x="164.53" y="32.37" xml:space="preserve"> ES</tspan><tspan class="cls-3" x="210.43" y="32.37">T</tspan><tspan class="cls-7" x="225.72" y="32.37">ADO DE CHIHUAHUA,</tspan><tspan class="cls-4" x="522.71" y="32.37"> </tspan><tspan class="cls-7" x="530.01" y="32.37">A.C</tspan><tspan class="cls-8" x="578.89" y="32.37">.</tspan></text>
</svg>