<svg width="65" height="56" viewBox="0 0 65 56" fill="none" xmlns="http://www.w3.org/2000/svg">
<path fill-rule="evenodd" clip-rule="evenodd" d="M1.18787 0H53.6678C54.0004 0 54.3092 0.112384 54.523 0.337145C54.7606 0.561907 54.8794 0.831621 54.8794 1.14629V53.6056H62.6005V8.96797C62.6005 8.6533 62.7431 8.36111 62.9331 8.15883C63.1707 7.95654 63.4558 7.8217 63.7884 7.8217C64.121 7.8217 64.4061 7.95654 64.6436 8.15883C64.8812 8.38359 65 8.67578 65 8.96797V54.3023C65 54.617 64.8812 54.8867 64.6436 55.1115C64.216 55.516 63.5033 55.516 62.9331 55.516H1.18787C0.855263 55.516 0.570175 55.3812 0.332602 55.1789C0.142544 54.9991 0 54.6844 0 54.3697V1.16875C0 0.876561 0.118786 0.58437 0.332602 0.359609C0.570175 0.134848 0.855263 0.0224809 1.18787 0.0224809V0ZM6.86586 8.2937H18.9108C19.3384 8.2937 19.6948 8.63083 19.6948 9.05788V17.419C19.6948 17.8236 19.3384 18.1607 18.9108 18.1607H6.86586C6.41447 18.1607 6.05811 17.8236 6.05811 17.419V9.05788C6.05811 8.63083 6.41447 8.2937 6.86586 8.2937ZM35.6597 25.5778H47.2058C47.7997 25.5778 48.2511 26.0498 48.2511 26.5668V43.2216C48.2511 43.761 47.7997 44.233 47.2058 44.233H35.6597C35.1133 44.233 34.6144 43.761 34.6144 43.2216V26.5668C34.6144 26.0274 35.1133 25.5778 35.6597 25.5778ZM5.58297 42.0528H26.9883C27.1308 42.0528 27.2496 42.1652 27.2496 42.3001V44.233C27.2496 44.3679 27.1308 44.4803 26.9883 44.4803H5.58297C5.41667 44.4803 5.29788 44.3679 5.29788 44.233V42.3001C5.29788 42.1652 5.44042 42.0528 5.58297 42.0528ZM5.8443 33.5793H27.2496C27.4159 33.5793 27.511 33.6917 27.511 33.8041V35.7146C27.511 35.8719 27.4159 35.9843 27.2496 35.9843H5.8443C5.678 35.9843 5.58297 35.8494 5.58297 35.7146V33.8041C5.58297 33.6917 5.678 33.5793 5.8443 33.5793ZM6.10563 25.1058H27.511C27.6773 25.1058 27.7723 25.2182 27.7723 25.3306V27.2411C27.7723 27.3984 27.6773 27.4883 27.511 27.4883H6.10563C5.93933 27.4883 5.8443 27.3984 5.8443 27.2411V25.3306C5.8443 25.2182 5.93933 25.1058 6.10563 25.1058ZM25.1115 9.4175H46.5643C46.6831 9.4175 46.8257 9.55236 46.8257 9.66474V11.5527C46.8257 11.7101 46.7069 11.8449 46.5643 11.8449H25.1115C24.9689 11.8449 24.8501 11.7101 24.8501 11.5527V9.66474C24.8501 9.55236 24.9927 9.4175 25.1115 9.4175ZM25.1115 14.7219H46.5643C46.6831 14.7219 46.8257 14.8567 46.8257 14.9691V16.8571C46.8257 17.0144 46.7069 17.1043 46.5643 17.1043H25.1115C24.9689 17.1043 24.8501 17.0144 24.8501 16.8571V14.9691C24.8501 14.8342 24.9927 14.7219 25.1115 14.7219ZM57.7303 4.22551C57.7303 3.91084 57.849 3.64112 58.0866 3.41636C58.3004 3.1916 58.6093 3.05675 58.9419 3.05675C59.2745 3.05675 59.5833 3.1916 59.7971 3.41636C60.0347 3.64112 60.1535 3.91084 60.1535 4.22551V49.5598C60.1535 49.8745 60.0347 50.1892 59.7971 50.369C59.5833 50.5937 59.2745 50.7062 58.9419 50.7062C58.6093 50.7062 58.3242 50.5713 58.0866 50.369C57.849 50.1892 57.7303 49.8745 57.7303 49.5598V4.22551Z" fill="#045A6E"/>
</svg>
