<svg width="50" height="45" viewBox="0 0 50 45" fill="none" xmlns="http://www.w3.org/2000/svg">
<g clip-path="url(#clip0_28_79)">
<path d="M0.113342 14.3679L2.3003 17.0786L24.0499 44.0252L15.0553 14.3679H0.113342Z" fill="#95B422"/>
<path d="M25.6701 43.9584L47.3663 17.0786L49.5533 14.3679H35.4647L25.6701 43.9584Z" fill="#95B422"/>
<path d="M41.0788 0H25.4501L35.0714 12.8724L41.0788 0Z" fill="#95B422"/>
<path d="M7.7677 0.480713L0 13.2596H14.5353L7.7677 0.480713Z" fill="#95B422"/>
<path d="M49.6667 13.2596L41.9056 0.494019L35.9448 13.2596H49.6667Z" fill="#95B422"/>
<path d="M24.2366 0H8.60114L15.422 12.8724L24.2366 0Z" fill="#95B422"/>
<path d="M24.85 0.8479L16.3555 13.2596H34.1246L24.85 0.8479Z" fill="#95B422"/>
<path d="M24.85 45L34.4779 14.3679H16.0355L24.85 45Z" fill="#95B422"/>
</g>
<defs>
<clipPath id="clip0_28_79">
<rect width="50" height="45" fill="white"/>
</clipPath>
</defs>
</svg>
