<svg xmlns="http://www.w3.org/2000/svg" xmlns:xlink="http://www.w3.org/1999/xlink" version="1.1" id="Capa_1" x="0px" y="0px" viewBox="0 0 500 500" xml:space="preserve">
<style type="text/css">
	.st0{fill:#036564;}
	.st1{fill-rule:evenodd;clip-rule:evenodd;}
	.st2{fill:#036564;}
	.st3{fill:#CDB380;}
</style>
<polygon class="st0" points="279.44,220.64 279.44,220.64 279.44,220.64 " fill="#045a6e"/>
<g>
	<polygon points="31.26,190.12 50.21,213.56 238.65,446.72 160.74,190.12  " fill="#045a6e"/>
	<polygon points="252.72,446.12 440.68,213.56 459.63,190.12 337.58,190.12  " fill="#045a6e"/>
	<polygon points="463.5,185.33 463.5,185.33 463.5,185.33  " fill="#045a6e"/>
	<polygon points="386.21,65.81 250.81,65.81 334.12,177.16  " fill="#045a6e"/>
	<polygon points="97.58,69.96 30.3,180.53 156.25,180.53  " fill="#045a6e"/>
	<polygon points="460.58,180.53 393.36,70.06 341.69,180.53  " fill="#045a6e"/>
	<polygon points="463.5,185.33 463.5,185.32 463.5,185.33  " fill="#045a6e"/>
	<polygon points="240.28,65.81 104.84,65.81 163.94,177.19  " fill="#045a6e"/>
	<polygon points="245.58,73.16 171.98,180.53 325.92,180.53  " fill="#045a6e"/>
	<polygon points="245.61,455.12 329,190.12 169.23,190.12  " fill="#045a6e"/>
</g>
</svg>