<svg width="31" height="33" viewBox="0 0 31 33" fill="none" xmlns="http://www.w3.org/2000/svg">
<path fill-rule="evenodd" clip-rule="evenodd" d="M28.9333 0H4.14542C2.99727 0 2.05458 0.928728 2.05458 2.05044V6.17544H5.16062C5.74074 6.17544 6.18791 6.64583 6.18791 7.20066C6.18791 7.75548 5.72866 8.23794 5.16062 8.23794H1.03938C0.459259 8.23794 0 8.70833 0 9.26316C0 9.81798 0.459259 10.3004 1.03938 10.3004H2.05458V14.4254H5.16062C5.74074 14.4254 6.18791 14.8958 6.18791 15.4627C6.18791 16.0296 5.72866 16.5 5.16062 16.5H1.03938C0.459259 16.5 0 16.9704 0 17.5252C0 18.08 0.459259 18.5625 1.03938 18.5625H2.05458V22.6875H5.16062C5.74074 22.6875 6.18791 23.1579 6.18791 23.7248C6.18791 24.2917 5.72866 24.75 5.16062 24.75H1.03938C0.459259 24.75 0 25.2204 0 25.7873C0 26.3542 0.459259 26.8125 1.03938 26.8125H2.05458V30.9375C2.05458 32.0592 2.99727 33 4.12125 33H28.9333C30.0815 33 31 32.0592 31 30.9375V2.05044C31 0.928728 30.0815 0 28.9333 0ZM21.2951 14.4134C19.9294 15.511 19.5548 14.9561 18.9263 14.3531C18.4912 13.9189 17.4156 14.8235 16.4487 15.7522C15.506 16.705 14.5996 17.8026 15.0468 18.2248C15.6632 18.852 16.207 19.2259 15.1072 20.5888C14.0074 21.9638 13.2823 20.9145 12.678 20.3114C11.977 19.6239 12.6296 17.0428 15.1797 14.4978C17.7298 11.9529 20.3162 11.2895 21.0051 12.0011C21.6214 12.5921 22.6608 13.3279 21.283 14.4254L21.2951 14.4134ZM17.186 7.70724C22.0565 7.70724 26.0086 11.6272 26.0086 16.5C26.0086 21.3728 22.0565 25.2928 17.186 25.2928C12.3154 25.2928 8.37544 21.3487 8.37544 16.5C8.37544 11.6513 12.3154 7.70724 17.186 7.70724Z" fill="white"/>
</svg>
