<svg xmlns="http://www.w3.org/2000/svg" xmlns:xlink="http://www.w3.org/1999/xlink" version="1.1" id="Capa_1" x="0px" y="0px" viewBox="0 0 500 500" style="enable-background:new 0 0 500 500;" xml:space="preserve">
<style type="text/css">
	.st0{fill:#4B4D4F;}
	.st1{fill-rule:evenodd;clip-rule:evenodd;}
	.st2{fill:#045A6E;}
	.st3{fill:#95B422;}
</style>
<polygon class="st0" points="279.44,220.64 279.44,220.64 279.44,220.64 " fill="#3b5998"/>
<path d="M250,75.61c-100.31,0-181.62,81.31-181.62,181.62c0,89.57,64.89,163.81,150.19,178.72V316.23h-45.92v-52.27h45.92v-39.84  c0-45.32,27-70.36,68.3-70.36c19.78,0,40.48,3.53,40.48,3.53v44.5h-22.8c-22.46,0-29.47,13.94-29.47,28.24v33.92h50.15l-8.02,52.27  h-42.14v120.69c88.41-12.24,156.54-87.92,156.54-179.69C431.62,156.92,350.31,75.61,250,75.61z" fill="#3b5998"/>
</svg>