<svg width="22" height="21" viewBox="0 0 22 21" fill="none" xmlns="http://www.w3.org/2000/svg">
<path fill-rule="evenodd" clip-rule="evenodd" d="M11.3018 0.0117188C5.39325 0.0117188 0.603516 4.7087 0.603516 10.5028C0.603516 16.2969 5.39325 20.9939 11.3018 20.9939C17.2103 20.9939 22.0001 16.2969 22.0001 10.5028C22.0001 4.7087 17.2103 0.0117188 11.3018 0.0117188ZM17.5732 12.9462C17.5732 14.9863 15.8799 16.6409 13.8055 16.6409H8.79807C6.71769 16.6409 5.03039 14.9804 5.03039 12.9462V8.03572C5.03039 5.99562 6.71769 4.341 8.79807 4.341H13.8055C15.8859 4.341 17.5732 5.99562 17.5732 8.03572V12.9462Z" fill="white"/>
<path fill-rule="evenodd" clip-rule="evenodd" d="M13.8056 5.49756H8.79811C7.37086 5.49756 6.20972 6.63622 6.20972 8.03582V12.9463C6.20972 14.3459 7.37086 15.4846 8.79811 15.4846H13.8056C15.2328 15.4846 16.3939 14.3459 16.3939 12.9463V8.03582C16.3939 6.63622 15.2328 5.49756 13.8056 5.49756ZM11.3502 13.5216C9.64478 13.5216 8.25987 12.1635 8.25987 10.4911C8.25987 8.81865 9.64478 7.46056 11.3502 7.46056C13.0556 7.46056 14.4406 8.81865 14.4406 10.4911C14.4406 12.1635 13.0556 13.5216 11.3502 13.5216ZM14.622 7.98245C14.2168 7.98245 13.8842 7.6622 13.8842 7.25892C13.8842 6.85565 14.2107 6.5354 14.622 6.5354C15.0332 6.5354 15.3598 6.85565 15.3598 7.25892C15.3598 7.6622 15.0332 7.98245 14.622 7.98245Z" fill="white"/>
<path fill-rule="evenodd" clip-rule="evenodd" d="M11.3501 8.55176C10.2616 8.55176 9.37256 9.42355 9.37256 10.491C9.37256 11.5585 10.2616 12.4303 11.3501 12.4303C12.4387 12.4303 13.3277 11.5585 13.3277 10.491C13.3277 9.42355 12.4387 8.55176 11.3501 8.55176Z" fill="white"/>
</svg>
