<svg width="166" height="172" viewBox="0 0 166 172" fill="none" xmlns="http://www.w3.org/2000/svg">
<g clip-path="url(#clip0_170_8)">
<path d="M4.61944 141.252L0.0257112 126.128L0 126.042C0 125.896 0.085704 125.818 0.248541 125.818H3.05963C3.22247 125.818 3.32531 125.896 3.36817 126.042L6.33352 136.955C6.35066 136.998 6.3678 137.024 6.40209 137.024C6.43637 137.024 6.45351 136.998 6.47065 136.955L9.39315 126.042C9.43601 125.896 9.53885 125.818 9.70169 125.818H12.4442C12.5299 125.818 12.5985 125.844 12.6413 125.904C12.6842 125.964 12.6928 126.042 12.667 126.128L8.00475 141.244C7.9619 141.39 7.85905 141.467 7.71336 141.467H4.90227C4.75657 141.467 4.65373 141.39 4.61087 141.244L4.61944 141.252Z" fill="white"/>
<path d="M24.9056 128.448C24.8541 128.499 24.7856 128.525 24.717 128.525H17.3979C17.3208 128.525 17.2865 128.56 17.2865 128.637V132.1C17.2865 132.177 17.3208 132.212 17.3979 132.212H22.1973C22.2745 132.212 22.3344 132.238 22.3859 132.289C22.4373 132.341 22.463 132.401 22.463 132.478V134.652C22.463 134.73 22.4373 134.79 22.3859 134.841C22.3344 134.893 22.2745 134.919 22.1973 134.919H17.3979C17.3208 134.919 17.2865 134.953 17.2865 135.031V138.657C17.2865 138.734 17.3208 138.769 17.3979 138.769H24.717C24.7942 138.769 24.8541 138.795 24.9056 138.846C24.957 138.898 24.9827 138.958 24.9827 139.035V141.209C24.9827 141.287 24.957 141.347 24.9056 141.398C24.8541 141.45 24.7856 141.476 24.717 141.476H14.4154C14.3383 141.476 14.2783 141.45 14.2269 141.398C14.1754 141.347 14.1497 141.287 14.1497 141.209V126.093C14.1497 126.016 14.1754 125.956 14.2269 125.904C14.2783 125.853 14.3383 125.827 14.4154 125.827H24.717C24.7942 125.827 24.8541 125.853 24.9056 125.904C24.957 125.956 24.9827 126.016 24.9827 126.093V128.259C24.9827 128.336 24.957 128.396 24.9056 128.448Z" fill="white"/>
<path d="M35.0615 141.269L32.2761 135.073C32.2504 135.013 32.199 134.988 32.139 134.988H30.065C29.9878 134.988 29.9535 135.022 29.9535 135.099V141.201C29.9535 141.278 29.9278 141.338 29.8764 141.39C29.825 141.441 29.7564 141.467 29.6879 141.467H27.0825C27.0053 141.467 26.9453 141.441 26.8939 141.39C26.8425 141.338 26.8168 141.278 26.8168 141.201V126.085C26.8168 126.007 26.8425 125.947 26.8939 125.896C26.9453 125.844 27.0053 125.818 27.0825 125.818H33.4588C34.4101 125.818 35.25 126.016 35.97 126.403C36.6899 126.789 37.2469 127.339 37.6412 128.061C38.0354 128.774 38.2325 129.608 38.2325 130.545C38.2325 131.559 37.9754 132.427 37.4698 133.149C36.9641 133.87 36.2613 134.386 35.3529 134.678C35.2758 134.713 35.2586 134.764 35.2843 134.833L38.3182 141.158C38.3525 141.218 38.3611 141.261 38.3611 141.295C38.3611 141.416 38.2754 141.476 38.1126 141.476H35.37C35.2243 141.476 35.1129 141.407 35.0615 141.278V141.269ZM29.9535 128.637V132.461C29.9535 132.538 29.9878 132.573 30.065 132.573H32.9875C33.6131 132.573 34.1187 132.384 34.513 132.014C34.9072 131.645 35.1043 131.155 35.1043 130.562C35.1043 129.969 34.9072 129.479 34.513 129.101C34.1187 128.723 33.6131 128.534 32.9875 128.534H30.065C29.9878 128.534 29.9535 128.568 29.9535 128.646V128.637Z" fill="white"/>
<path d="M40.2209 141.398C40.1694 141.347 40.1437 141.287 40.1437 141.209V126.093C40.1437 126.016 40.1694 125.956 40.2209 125.904C40.2723 125.853 40.3323 125.827 40.4094 125.827H43.0148C43.092 125.827 43.1519 125.853 43.2034 125.904C43.2548 125.956 43.2805 126.016 43.2805 126.093V141.209C43.2805 141.287 43.2548 141.347 43.2034 141.398C43.1519 141.45 43.0834 141.476 43.0148 141.476H40.4094C40.3323 141.476 40.2723 141.45 40.2209 141.398Z" fill="white"/>
<path d="M56.3932 128.448C56.3418 128.499 56.2818 128.525 56.2047 128.525H48.9113C48.8341 128.525 48.7999 128.56 48.7999 128.637V132.1C48.7999 132.177 48.8341 132.212 48.9113 132.212H53.7107C53.7878 132.212 53.8478 132.238 53.8992 132.289C53.9507 132.341 53.9764 132.401 53.9764 132.478V134.652C53.9764 134.73 53.9507 134.79 53.8992 134.841C53.8478 134.893 53.7878 134.919 53.7107 134.919H48.9113C48.8341 134.919 48.7999 134.953 48.7999 135.031V141.201C48.7999 141.278 48.7741 141.338 48.7227 141.39C48.6713 141.441 48.6027 141.467 48.5342 141.467H45.9288C45.8516 141.467 45.7916 141.441 45.7402 141.39C45.6888 141.338 45.6631 141.278 45.6631 141.201V126.085C45.6631 126.007 45.6888 125.947 45.7402 125.896C45.7916 125.844 45.8516 125.818 45.9288 125.818H56.2132C56.2904 125.818 56.3504 125.844 56.4018 125.896C56.4532 125.947 56.4789 126.007 56.4789 126.085V128.25C56.4789 128.328 56.4532 128.388 56.4018 128.439L56.3932 128.448Z" fill="white"/>
<path d="M57.8673 141.398C57.8159 141.347 57.7902 141.287 57.7902 141.209V126.093C57.7902 126.016 57.8159 125.956 57.8673 125.904C57.9187 125.853 57.9787 125.827 58.0558 125.827H60.6612C60.7384 125.827 60.7984 125.853 60.8498 125.904C60.9012 125.956 60.9269 126.016 60.9269 126.093V141.209C60.9269 141.287 60.9012 141.347 60.8498 141.398C60.7984 141.45 60.7298 141.476 60.6612 141.476H58.0558C57.9787 141.476 57.9187 141.45 57.8673 141.398Z" fill="white"/>
<path d="M65.7264 140.969C64.8522 140.513 64.1751 139.877 63.6952 139.061C63.2152 138.245 62.9838 137.291 62.9838 136.216V131.052C62.9838 129.978 63.2238 129.032 63.6952 128.216C64.1665 127.399 64.8436 126.764 65.7264 126.317C66.6091 125.87 67.6204 125.646 68.786 125.646C69.9516 125.646 70.9372 125.861 71.8113 126.282C72.6769 126.703 73.354 127.314 73.8425 128.096C74.3225 128.878 74.571 129.78 74.571 130.811C74.571 130.949 74.4853 131.026 74.3053 131.06L71.6999 131.215H71.6571C71.5114 131.215 71.4342 131.129 71.4342 130.966C71.4342 130.175 71.1943 129.539 70.7058 129.067C70.2258 128.594 69.583 128.353 68.8031 128.353C68.0232 128.353 67.3547 128.594 66.8748 129.067C66.3948 129.548 66.1463 130.175 66.1463 130.966V136.354C66.1463 137.127 66.3863 137.755 66.8748 138.236C67.3547 138.717 67.9975 138.949 68.8031 138.949C69.6087 138.949 70.2258 138.709 70.7058 138.236C71.1857 137.763 71.4342 137.136 71.4342 136.354C71.4342 136.191 71.5199 136.105 71.6999 136.105L74.3053 136.216C74.3825 136.216 74.4424 136.242 74.4939 136.285C74.5453 136.328 74.571 136.38 74.571 136.44C74.571 137.471 74.331 138.382 73.8425 139.164C73.3626 139.955 72.6855 140.565 71.8113 140.994C70.9372 141.424 69.9344 141.648 68.786 141.648C67.6376 141.648 66.6091 141.416 65.7264 140.969Z" fill="white"/>
<path d="M85.7725 141.252L85.104 139.061C85.0697 139.001 85.0355 138.975 84.9926 138.975H79.5076C79.4647 138.975 79.4219 139.009 79.3961 139.061L78.7534 141.252C78.7105 141.398 78.6077 141.476 78.462 141.476H75.6252C75.5395 141.476 75.4709 141.45 75.4281 141.398C75.3852 141.347 75.3766 141.269 75.4023 141.166L80.2189 126.05C80.2618 125.904 80.356 125.827 80.5103 125.827H84.007C84.1527 125.827 84.2556 125.904 84.2984 126.05L89.115 141.166C89.115 141.166 89.1407 141.235 89.1407 141.278C89.1407 141.416 89.055 141.476 88.8921 141.476H86.0553C85.9096 141.476 85.8068 141.398 85.7639 141.252H85.7725ZM80.2875 136.534H84.2127C84.2984 136.534 84.3327 136.491 84.2984 136.397L82.2929 129.754C82.2758 129.694 82.2587 129.668 82.2244 129.677C82.1901 129.677 82.173 129.711 82.1558 129.754L80.1932 136.397C80.176 136.483 80.2103 136.534 80.2789 136.534H80.2875Z" fill="white"/>
<path d="M92.7146 140.969C91.8404 140.513 91.1633 139.877 90.6834 139.061C90.2034 138.245 89.972 137.291 89.972 136.216V131.052C89.972 129.978 90.212 129.032 90.6834 128.216C91.1548 127.399 91.8318 126.764 92.7146 126.317C93.5973 125.87 94.6086 125.646 95.7742 125.646C96.9398 125.646 97.9254 125.861 98.7995 126.282C99.6652 126.703 100.342 127.314 100.831 128.096C101.311 128.878 101.559 129.78 101.559 130.811C101.559 130.949 101.474 131.026 101.294 131.06L98.6881 131.215H98.6453C98.4996 131.215 98.4225 131.129 98.4225 130.966C98.4225 130.175 98.1825 129.539 97.694 129.067C97.214 128.594 96.5712 128.353 95.7913 128.353C95.0114 128.353 94.3429 128.594 93.863 129.067C93.3831 129.548 93.1345 130.175 93.1345 130.966V136.354C93.1345 137.127 93.3745 137.755 93.863 138.236C94.3429 138.717 94.9857 138.949 95.7913 138.949C96.597 138.949 97.214 138.709 97.694 138.236C98.1739 137.763 98.4225 137.136 98.4225 136.354C98.4225 136.191 98.5082 136.105 98.6881 136.105L101.294 136.216C101.371 136.216 101.431 136.242 101.482 136.285C101.534 136.328 101.559 136.38 101.559 136.44C101.559 137.471 101.319 138.382 100.831 139.164C100.351 139.955 99.6737 140.565 98.7995 140.994C97.9254 141.424 96.9226 141.648 95.7742 141.648C94.6258 141.648 93.5973 141.416 92.7146 140.969Z" fill="white"/>
<path d="M103.565 141.398C103.513 141.347 103.488 141.287 103.488 141.209V126.093C103.488 126.016 103.513 125.956 103.565 125.904C103.616 125.853 103.676 125.827 103.753 125.827H106.359C106.436 125.827 106.496 125.853 106.547 125.904C106.599 125.956 106.624 126.016 106.624 126.093V141.209C106.624 141.287 106.599 141.347 106.547 141.398C106.496 141.45 106.427 141.476 106.359 141.476H103.753C103.676 141.476 103.616 141.45 103.565 141.398Z" fill="white"/>
<path d="M111.484 141.003C110.601 140.53 109.907 139.86 109.418 139.001C108.93 138.141 108.681 137.153 108.681 136.036V131.249C108.681 130.149 108.93 129.17 109.418 128.319C109.907 127.468 110.592 126.807 111.484 126.342C112.366 125.87 113.386 125.638 114.552 125.638C115.718 125.638 116.755 125.87 117.637 126.342C118.52 126.815 119.214 127.468 119.703 128.319C120.191 129.17 120.44 130.141 120.44 131.249V136.036C120.44 137.153 120.191 138.141 119.703 139.009C119.214 139.877 118.529 140.539 117.637 141.012C116.755 141.484 115.726 141.716 114.552 141.716C113.378 141.716 112.366 141.476 111.484 141.003ZM116.532 138.227C117.037 137.703 117.294 137.016 117.294 136.148V131.224C117.294 130.356 117.046 129.66 116.549 129.135C116.052 128.611 115.383 128.345 114.552 128.345C113.721 128.345 113.078 128.611 112.581 129.135C112.084 129.66 111.835 130.364 111.835 131.224V136.148C111.835 137.016 112.084 137.703 112.581 138.227C113.078 138.752 113.738 139.009 114.552 139.009C115.366 139.009 116.035 138.752 116.54 138.227H116.532ZM113.121 124.34C113.086 124.28 113.095 124.203 113.146 124.117L114.329 121.857C114.389 121.719 114.501 121.659 114.663 121.659H116.917C117.02 121.659 117.089 121.693 117.132 121.762C117.174 121.831 117.157 121.908 117.097 121.994L115.512 124.254C115.435 124.375 115.332 124.435 115.203 124.435H113.326C113.224 124.435 113.155 124.409 113.129 124.349L113.121 124.34Z" fill="white"/>
<path d="M131.53 125.896C131.581 125.844 131.641 125.818 131.718 125.818H134.324C134.401 125.818 134.461 125.844 134.512 125.896C134.564 125.947 134.589 126.007 134.589 126.085V141.201C134.589 141.278 134.564 141.338 134.512 141.39C134.461 141.441 134.392 141.467 134.324 141.467H131.804C131.658 141.467 131.547 141.407 131.496 141.287L125.719 131.713C125.685 131.67 125.659 131.653 125.633 131.653C125.599 131.653 125.591 131.696 125.591 131.756L125.633 141.192C125.633 141.269 125.608 141.33 125.556 141.381C125.505 141.433 125.436 141.459 125.368 141.459H122.762C122.685 141.459 122.625 141.433 122.574 141.381C122.522 141.33 122.497 141.269 122.497 141.192V126.076C122.497 125.999 122.522 125.939 122.574 125.887C122.625 125.835 122.685 125.81 122.762 125.81H125.282C125.428 125.81 125.531 125.87 125.591 125.99L131.341 135.52C131.367 135.563 131.401 135.581 131.427 135.581C131.453 135.581 131.47 135.538 131.47 135.477L131.444 126.085C131.444 126.007 131.47 125.947 131.521 125.896H131.53Z" fill="white"/>
<path d="M141.146 141.398C141.094 141.347 141.069 141.287 141.069 141.209V126.093C141.069 126.016 141.094 125.956 141.146 125.904C141.197 125.853 141.257 125.827 141.334 125.827H146.914C148.028 125.827 149.005 126.024 149.845 126.42C150.685 126.815 151.336 127.374 151.799 128.087C152.262 128.8 152.493 129.634 152.493 130.57V136.741C152.493 137.677 152.262 138.511 151.799 139.224C151.336 139.937 150.685 140.496 149.845 140.891C149.005 141.287 148.028 141.484 146.914 141.484H141.334C141.257 141.484 141.197 141.459 141.146 141.407V141.398ZM144.325 138.769H147.025C147.711 138.769 148.259 138.537 148.688 138.073C149.108 137.609 149.331 136.99 149.348 136.216V131.078C149.348 130.304 149.133 129.685 148.714 129.221C148.294 128.757 147.719 128.525 147.008 128.525H144.334C144.257 128.525 144.223 128.56 144.223 128.637V138.657C144.223 138.734 144.257 138.769 144.334 138.769H144.325Z" fill="white"/>
<path d="M165.254 128.448C165.203 128.499 165.134 128.525 165.066 128.525H157.747C157.67 128.525 157.635 128.56 157.635 128.637V132.1C157.635 132.177 157.67 132.212 157.747 132.212H162.546C162.623 132.212 162.683 132.238 162.735 132.289C162.786 132.341 162.812 132.401 162.812 132.478V134.652C162.812 134.73 162.786 134.79 162.735 134.841C162.683 134.893 162.623 134.919 162.546 134.919H157.747C157.67 134.919 157.635 134.953 157.635 135.031V138.657C157.635 138.734 157.67 138.769 157.747 138.769H165.066C165.143 138.769 165.203 138.795 165.254 138.846C165.306 138.898 165.332 138.958 165.332 139.035V141.209C165.332 141.287 165.306 141.347 165.254 141.398C165.203 141.45 165.134 141.476 165.066 141.476H154.764C154.687 141.476 154.627 141.45 154.576 141.398C154.524 141.347 154.499 141.287 154.499 141.209V126.093C154.499 126.016 154.524 125.956 154.576 125.904C154.627 125.853 154.687 125.827 154.764 125.827H165.066C165.143 125.827 165.203 125.853 165.254 125.904C165.306 125.956 165.332 126.016 165.332 126.093V128.259C165.332 128.336 165.306 128.396 165.254 128.448Z" fill="white"/>
<path d="M9.13603 146.176C9.18746 146.125 9.24745 146.099 9.32458 146.099H11.9386C12.0157 146.099 12.0757 146.125 12.1271 146.176C12.1785 146.228 12.2042 146.288 12.2042 146.365V161.482C12.2042 161.559 12.1785 161.619 12.1271 161.671C12.0757 161.722 12.0157 161.748 11.9386 161.748H9.32458C9.24745 161.748 9.18746 161.722 9.13603 161.671C9.08461 161.619 9.0589 161.559 9.0589 161.482V155.311C9.0589 155.234 9.02462 155.2 8.94748 155.2H4.01094C3.9338 155.2 3.89952 155.234 3.89952 155.311V161.482C3.89952 161.559 3.87381 161.619 3.82239 161.671C3.77097 161.722 3.7024 161.748 3.63384 161.748H1.02844C0.951305 161.748 0.891312 161.722 0.83989 161.671C0.788468 161.619 0.762756 161.559 0.762756 161.482V146.365C0.762756 146.288 0.788468 146.228 0.83989 146.176C0.891312 146.125 0.951305 146.099 1.02844 146.099H3.63384C3.71097 146.099 3.77097 146.125 3.82239 146.176C3.87381 146.228 3.89952 146.288 3.89952 146.365V152.381C3.89952 152.458 3.9338 152.493 4.01094 152.493H8.93891C9.01605 152.493 9.05033 152.458 9.05033 152.381V146.365C9.05033 146.288 9.07604 146.228 9.12746 146.176H9.13603Z" fill="white"/>
<path d="M14.484 161.679C14.4326 161.628 14.4069 161.567 14.4069 161.49V146.374C14.4069 146.297 14.4326 146.237 14.484 146.185C14.5354 146.133 14.5954 146.108 14.6725 146.108H17.2779C17.3551 146.108 17.4151 146.133 17.4665 146.185C17.5179 146.237 17.5436 146.297 17.5436 146.374V161.49C17.5436 161.567 17.5179 161.628 17.4665 161.679C17.4151 161.731 17.3465 161.756 17.2779 161.756H14.6725C14.5954 161.756 14.5354 161.731 14.484 161.679Z" fill="white"/>
<path d="M19.9947 161.679C19.9433 161.628 19.9176 161.567 19.9176 161.49V146.374C19.9176 146.297 19.9433 146.237 19.9947 146.185C20.0462 146.133 20.1062 146.108 20.1833 146.108H25.7626C26.8768 146.108 27.8538 146.305 28.6937 146.701C29.5336 147.096 30.1849 147.654 30.6477 148.368C31.1105 149.081 31.3419 149.915 31.3419 150.851V157.021C31.3419 157.958 31.1105 158.792 30.6477 159.505C30.1849 160.218 29.5336 160.777 28.6937 161.172C27.8538 161.567 26.8768 161.765 25.7626 161.765H20.1833C20.1062 161.765 20.0462 161.739 19.9947 161.688V161.679ZM23.1744 159.05H25.874C26.5597 159.05 27.1082 158.818 27.5367 158.353C27.9566 157.889 28.1795 157.271 28.1966 156.497V151.358C28.1966 150.585 27.9823 149.966 27.5624 149.502C27.1424 149.038 26.5682 148.806 25.8569 148.806H23.1829C23.1058 148.806 23.0715 148.84 23.0715 148.918V158.938C23.0715 159.015 23.1058 159.05 23.1829 159.05H23.1744Z" fill="white"/>
<path d="M41.5921 161.55L38.8068 155.354C38.781 155.294 38.7296 155.268 38.6696 155.268H36.5956C36.5185 155.268 36.4842 155.303 36.4842 155.38V161.49C36.4842 161.567 36.4585 161.628 36.407 161.679C36.3556 161.731 36.2871 161.756 36.2185 161.756H33.6131C33.536 161.756 33.476 161.731 33.4245 161.679C33.3731 161.628 33.3474 161.567 33.3474 161.49V146.374C33.3474 146.297 33.3731 146.237 33.4245 146.185C33.476 146.133 33.536 146.108 33.6131 146.108H39.9895C40.9408 146.108 41.7807 146.305 42.5006 146.692C43.2205 147.079 43.7776 147.629 44.1718 148.351C44.5661 149.064 44.7632 149.897 44.7632 150.834C44.7632 151.848 44.5061 152.716 44.0004 153.438C43.4948 154.16 42.792 154.675 41.8835 154.968C41.8064 154.993 41.7893 155.054 41.815 155.122L44.8489 161.447C44.8832 161.507 44.8917 161.55 44.8917 161.585C44.8917 161.705 44.806 161.765 44.6432 161.765H41.9007C41.755 161.765 41.6436 161.696 41.5921 161.567V161.55ZM36.4842 148.918V152.742C36.4842 152.819 36.5185 152.854 36.5956 152.854H39.5181C40.1437 152.854 40.6494 152.665 41.0436 152.295C41.4379 151.925 41.635 151.436 41.635 150.843C41.635 150.25 41.4379 149.76 41.0436 149.382C40.6494 149.004 40.1437 148.815 39.5181 148.815H36.5956C36.5185 148.815 36.4842 148.849 36.4842 148.926V148.918Z" fill="white"/>
<path d="M49.1684 161.284C48.2856 160.811 47.5914 160.141 47.1029 159.282C46.6144 158.422 46.3658 157.434 46.3658 156.317V151.53C46.3658 150.43 46.6144 149.451 47.1029 148.6C47.5914 147.749 48.277 147.087 49.1684 146.623C50.0511 146.151 51.071 145.919 52.2366 145.919C53.4021 145.919 54.4392 146.151 55.3219 146.623C56.2047 147.096 56.8989 147.749 57.3874 148.6C57.8759 149.451 58.1244 150.422 58.1244 151.53V156.317C58.1244 157.434 57.8759 158.431 57.3874 159.29C56.8989 160.15 56.2132 160.82 55.3219 161.292C54.4392 161.765 53.4107 161.997 52.2366 161.997C51.0624 161.997 50.0511 161.756 49.1684 161.284ZM54.2163 158.508C54.722 157.984 54.9791 157.296 54.9791 156.428V151.504C54.9791 150.636 54.7306 149.94 54.2335 149.416C53.7364 148.892 53.0679 148.626 52.2366 148.626C51.4052 148.626 50.7625 148.892 50.2654 149.416C49.7683 149.94 49.5198 150.645 49.5198 151.504V156.428C49.5198 157.296 49.7683 157.984 50.2654 158.508C50.7625 159.032 51.4224 159.29 52.2366 159.29C53.0508 159.29 53.7192 159.032 54.2249 158.508H54.2163Z" fill="white"/>
<path d="M62.6067 161.249C61.7325 160.794 61.0555 160.158 60.5755 159.342C60.0956 158.525 59.8642 157.571 59.8642 156.497V151.333C59.8642 150.258 60.1042 149.313 60.5755 148.488C61.0469 147.672 61.724 147.036 62.6067 146.589C63.4895 146.142 64.5008 145.919 65.6664 145.919C66.8319 145.919 67.8175 146.133 68.6917 146.554C69.5573 146.976 70.2344 147.586 70.7229 148.368C71.2114 149.15 71.4514 150.052 71.4514 151.083C71.4514 151.221 71.3657 151.298 71.1857 151.333L68.5803 151.487H68.5374C68.3917 151.487 68.3146 151.41 68.3146 151.238C68.3146 150.447 68.0746 149.811 67.5861 149.339C67.1062 148.858 66.4634 148.626 65.6835 148.626C64.9036 148.626 64.2351 148.866 63.7552 149.339C63.2752 149.811 63.0267 150.447 63.0267 151.238V156.626C63.0267 157.4 63.2666 158.027 63.7552 158.508C64.2351 158.989 64.8779 159.221 65.6835 159.221C66.4891 159.221 67.1062 158.981 67.5861 158.508C68.0661 158.035 68.3146 157.408 68.3146 156.626C68.3146 156.463 68.4003 156.377 68.5803 156.377L71.1857 156.489C71.2628 156.489 71.3228 156.514 71.3742 156.557C71.4257 156.6 71.4514 156.652 71.4514 156.712C71.4514 157.743 71.2114 158.654 70.7229 159.436C70.2429 160.227 69.5659 160.837 68.6917 161.267C67.8175 161.696 66.8148 161.92 65.6664 161.92C64.5179 161.92 63.4895 161.688 62.6067 161.241V161.249Z" fill="white"/>
<path d="M82.6529 161.533L81.9844 159.342C81.9501 159.282 81.9158 159.256 81.873 159.256H76.3879C76.3451 159.256 76.3022 159.29 76.2765 159.342L75.6337 161.533C75.5909 161.679 75.488 161.756 75.3423 161.756H72.5055C72.4198 161.756 72.3513 161.731 72.3084 161.679C72.2656 161.628 72.257 161.55 72.2827 161.447L77.0993 146.331C77.1421 146.185 77.2364 146.108 77.3907 146.108H80.896C81.0417 146.108 81.1445 146.185 81.1874 146.331L86.0039 161.447C86.0039 161.447 86.0296 161.516 86.0296 161.559C86.0296 161.696 85.9439 161.756 85.7811 161.756H82.9443C82.7986 161.756 82.6957 161.679 82.6529 161.533ZM77.1678 156.815H81.0931C81.1788 156.815 81.2131 156.772 81.1788 156.678L79.1733 150.035C79.1562 149.975 79.139 149.949 79.1048 149.958C79.0705 149.958 79.0533 149.992 79.0362 150.035L77.0736 156.678C77.0564 156.764 77.0907 156.815 77.1593 156.815H77.1678Z" fill="white"/>
<path d="M95.877 161.55L93.0917 155.354C93.066 155.294 93.0145 155.268 92.9545 155.268H90.8805C90.8034 155.268 90.7691 155.303 90.7691 155.38V161.49C90.7691 161.567 90.7434 161.628 90.692 161.679C90.6405 161.731 90.572 161.756 90.5034 161.756H87.898C87.8209 161.756 87.7609 161.731 87.7095 161.679C87.658 161.628 87.6323 161.567 87.6323 161.49V146.374C87.6323 146.297 87.658 146.237 87.7095 146.185C87.7609 146.133 87.8209 146.108 87.898 146.108H94.2744C95.2257 146.108 96.0656 146.305 96.7855 146.692C97.5054 147.079 98.0625 147.629 98.4567 148.351C98.851 149.064 99.0481 149.897 99.0481 150.834C99.0481 151.848 98.791 152.716 98.2853 153.438C97.7797 154.16 97.0769 154.675 96.1684 154.968C96.0913 154.993 96.0742 155.054 96.0999 155.122L99.1338 161.447C99.1681 161.507 99.1766 161.55 99.1766 161.585C99.1766 161.705 99.0909 161.765 98.9281 161.765H96.1856C96.0399 161.765 95.9285 161.696 95.877 161.567V161.55ZM90.7691 148.918V152.742C90.7691 152.819 90.8034 152.854 90.8805 152.854H93.803C94.4286 152.854 94.9343 152.665 95.3285 152.295C95.7228 151.925 95.9199 151.436 95.9199 150.843C95.9199 150.25 95.7228 149.76 95.3285 149.382C94.9343 149.004 94.4286 148.815 93.803 148.815H90.8805C90.8034 148.815 90.7691 148.849 90.7691 148.926V148.918Z" fill="white"/>
<path d="M110.215 153.722C111.629 154.452 112.332 155.664 112.332 157.365C112.332 158.809 111.844 159.9 110.858 160.639C109.873 161.378 108.587 161.748 107.001 161.748H101.225C101.148 161.748 101.088 161.722 101.036 161.671C100.985 161.619 100.959 161.559 100.959 161.482V146.365C100.959 146.288 100.985 146.228 101.036 146.176C101.088 146.125 101.148 146.099 101.225 146.099H106.821C110.344 146.099 112.109 147.534 112.109 150.396C112.109 151.891 111.475 152.957 110.215 153.593C110.13 153.636 110.13 153.679 110.215 153.73V153.722ZM104.105 148.909V152.398C104.105 152.475 104.139 152.51 104.216 152.51H106.821C107.524 152.51 108.064 152.347 108.45 152.02C108.835 151.693 109.033 151.247 109.033 150.679C109.033 150.112 108.835 149.64 108.45 149.304C108.064 148.969 107.524 148.806 106.821 148.806H104.216C104.139 148.806 104.105 148.84 104.105 148.918V148.909ZM108.613 158.491C108.998 158.139 109.195 157.657 109.195 157.047C109.195 156.437 108.998 155.956 108.613 155.604C108.227 155.251 107.687 155.079 106.984 155.079H104.216C104.139 155.079 104.105 155.114 104.105 155.191V158.903C104.105 158.981 104.139 159.015 104.216 159.015H107.001C107.687 159.015 108.218 158.843 108.604 158.491H108.613Z" fill="white"/>
<path d="M117.08 161.258C116.206 160.811 115.537 160.184 115.049 159.367C114.569 158.551 114.32 157.623 114.32 156.557V146.357C114.32 146.279 114.346 146.219 114.398 146.168C114.449 146.116 114.509 146.09 114.586 146.09H117.192C117.269 146.09 117.329 146.116 117.38 146.168C117.432 146.219 117.457 146.279 117.457 146.357V156.575C117.457 157.365 117.697 158.001 118.186 158.482C118.666 158.964 119.3 159.213 120.088 159.213C120.877 159.213 121.511 158.972 122 158.482C122.488 157.992 122.728 157.365 122.728 156.575V146.357C122.728 146.279 122.754 146.219 122.805 146.168C122.857 146.116 122.917 146.09 122.994 146.09H125.608C125.685 146.09 125.745 146.116 125.796 146.168C125.848 146.219 125.873 146.279 125.873 146.357V156.557C125.873 157.614 125.633 158.551 125.145 159.367C124.665 160.184 123.988 160.811 123.114 161.258C122.248 161.705 121.237 161.928 120.088 161.928C118.94 161.928 117.937 161.705 117.063 161.258H117.08Z" fill="white"/>
<path d="M136.355 161.55L133.57 155.354C133.544 155.294 133.493 155.268 133.433 155.268H131.358C131.281 155.268 131.247 155.303 131.247 155.38V161.49C131.247 161.567 131.221 161.628 131.17 161.679C131.119 161.731 131.05 161.756 130.981 161.756H128.376C128.299 161.756 128.239 161.731 128.187 161.679C128.136 161.628 128.11 161.567 128.11 161.49V146.374C128.11 146.297 128.136 146.237 128.187 146.185C128.239 146.133 128.299 146.108 128.376 146.108H134.752C135.704 146.108 136.544 146.305 137.263 146.692C137.983 147.079 138.54 147.629 138.935 148.351C139.329 149.064 139.526 149.897 139.526 150.834C139.526 151.848 139.269 152.716 138.763 153.438C138.258 154.16 137.555 154.675 136.646 154.968C136.569 154.993 136.552 155.054 136.578 155.122L139.612 161.447C139.646 161.507 139.655 161.55 139.655 161.585C139.655 161.705 139.569 161.765 139.406 161.765H136.664C136.518 161.765 136.406 161.696 136.355 161.567V161.55ZM131.247 148.918V152.742C131.247 152.819 131.281 152.854 131.358 152.854H134.281C134.907 152.854 135.412 152.665 135.807 152.295C136.201 151.925 136.398 151.436 136.398 150.843C136.398 150.25 136.201 149.76 135.807 149.382C135.412 149.004 134.907 148.815 134.281 148.815H131.358C131.281 148.815 131.247 148.849 131.247 148.926V148.918Z" fill="white"/>
<path d="M143.931 161.284C143.048 160.811 142.354 160.141 141.866 159.282C141.377 158.422 141.129 157.434 141.129 156.317V151.53C141.129 150.43 141.377 149.451 141.866 148.6C142.354 147.749 143.04 147.087 143.931 146.623C144.814 146.151 145.834 145.919 146.999 145.919C148.165 145.919 149.202 146.151 150.085 146.623C150.968 147.096 151.662 147.749 152.15 148.6C152.639 149.451 152.887 150.422 152.887 151.53V156.317C152.887 157.434 152.639 158.431 152.15 159.29C151.662 160.15 150.976 160.82 150.085 161.292C149.202 161.765 148.174 161.997 146.999 161.997C145.825 161.997 144.814 161.756 143.931 161.284ZM148.979 158.508C149.485 157.984 149.742 157.296 149.742 156.428V151.504C149.742 150.636 149.493 149.94 148.996 149.416C148.499 148.892 147.831 148.626 146.999 148.626C146.168 148.626 145.525 148.892 145.028 149.416C144.531 149.94 144.283 150.645 144.283 151.504V156.428C144.283 157.296 144.531 157.984 145.028 158.508C145.525 159.032 146.185 159.29 146.999 159.29C147.814 159.29 148.482 159.032 148.988 158.508H148.979Z" fill="white"/>
<path d="M157.164 161.361C156.273 160.983 155.587 160.433 155.098 159.728C154.619 159.024 154.37 158.199 154.37 157.262V156.772C154.37 156.695 154.396 156.635 154.447 156.583C154.499 156.532 154.559 156.506 154.636 156.506H157.181C157.258 156.506 157.318 156.532 157.37 156.583C157.421 156.635 157.447 156.703 157.447 156.772V157.107C157.447 157.7 157.721 158.207 158.27 158.62C158.818 159.032 159.564 159.239 160.498 159.239C161.286 159.239 161.878 159.067 162.263 158.732C162.649 158.396 162.846 157.984 162.846 157.494C162.846 157.133 162.726 156.832 162.486 156.592C162.246 156.351 161.921 156.128 161.518 155.947C161.106 155.758 160.455 155.5 159.564 155.174C158.569 154.83 157.721 154.478 157.035 154.125C156.341 153.764 155.767 153.283 155.296 152.664C154.824 152.046 154.593 151.281 154.593 150.37C154.593 149.459 154.824 148.694 155.287 148.024C155.75 147.354 156.384 146.838 157.207 146.477C158.021 146.116 158.972 145.944 160.035 145.944C161.166 145.944 162.169 146.142 163.06 146.546C163.943 146.95 164.637 147.508 165.134 148.23C165.631 148.952 165.88 149.794 165.88 150.748V151.083C165.88 151.161 165.854 151.221 165.803 151.272C165.751 151.324 165.691 151.35 165.614 151.35H163.052C162.975 151.35 162.915 151.324 162.863 151.272C162.812 151.221 162.786 151.161 162.786 151.083V150.903C162.786 150.275 162.529 149.743 162.015 149.304C161.501 148.866 160.798 148.643 159.906 148.643C159.204 148.643 158.664 148.789 158.27 149.09C157.875 149.39 157.678 149.794 157.678 150.318C157.678 150.688 157.79 151.006 158.021 151.255C158.252 151.513 158.595 151.736 159.049 151.934C159.504 152.132 160.206 152.407 161.158 152.75C162.212 153.137 163.043 153.481 163.643 153.782C164.243 154.082 164.792 154.521 165.272 155.114C165.751 155.707 166 156.463 166 157.408C166 158.809 165.486 159.917 164.457 160.725C163.429 161.542 162.041 161.946 160.284 161.946C159.092 161.946 158.055 161.756 157.164 161.378V161.361Z" fill="white"/>
<path d="M114.063 53.5637C112.949 53.5637 112.049 54.466 112.049 55.5831V66.7891H98.9024V63.1197H90.7091C89.3036 61.2119 87.2038 59.8541 84.787 59.3987L88.1465 54.0793L89.7235 51.5785L97.094 39.9085C97.094 39.9085 97.1026 39.8999 97.1112 39.8999H99.3566H101.816H104.242C105.433 39.8999 106.393 38.903 106.342 37.6999C106.29 36.5484 105.253 35.6891 104.105 35.6891H99.6309H97.0426H94.7972C94.7972 35.6891 94.78 35.6891 94.78 35.6977L84.4013 52.1371L83.03 54.3113C83.03 54.3113 83.0043 54.3285 82.9957 54.3113L81.6502 52.1801L71.2629 35.7578C71.2629 35.7578 71.2543 35.7492 71.2457 35.7492H68.9403H66.3606H61.7412C60.3699 35.7492 59.2986 37.0726 59.7443 38.5163C60.0185 39.4015 60.8927 39.9601 61.8183 39.9601H64.1837H66.6349H68.9317C68.9317 39.9601 68.9489 39.9601 68.9489 39.9686L76.4308 51.802L77.9906 54.2683L81.2302 59.3901C78.8134 59.8455 76.7136 61.2033 75.2995 63.1197H67.1062V66.7891H53.9592V55.5831C53.9592 54.466 53.0593 53.5637 51.9452 53.5637C50.831 53.5637 49.9312 54.466 49.9312 55.5831V82.0427C49.9312 83.1599 50.831 84.0622 51.9452 84.0622C53.0593 84.0622 53.9592 83.1599 53.9592 82.0427V70.8367H67.1062V74.5061H75.2995C77.0393 76.8694 79.8333 78.4162 82.9957 78.4162C86.1582 78.4162 88.9522 76.878 90.692 74.5061H98.8853V70.8367H112.032V82.0427C112.032 83.1599 112.932 84.0622 114.046 84.0622C115.16 84.0622 116.06 83.1599 116.06 82.0427V55.5831C116.06 54.466 115.16 53.5637 114.046 53.5637H114.063ZM83.0129 76.1733C78.9677 76.1733 75.6766 72.8734 75.6766 68.8172C75.6766 64.7611 78.9677 61.4611 83.0129 61.4611C87.0581 61.4611 90.3491 64.7611 90.3491 68.8172C90.3491 72.8734 87.0581 76.1733 83.0129 76.1733Z" fill="white"/>
<path d="M83.0129 62.3119C79.439 62.3119 76.5251 65.2251 76.5251 68.8172C76.5251 72.4093 79.4304 75.3225 83.0129 75.3225C86.5953 75.3225 89.5007 72.4093 89.5007 68.8172C89.5007 65.2251 86.5953 62.3119 83.0129 62.3119ZM83.6899 68.7914C83.6642 69.1781 83.33 69.4703 82.9443 69.4359C82.8672 69.4359 82.7986 69.4016 82.7301 69.3758L81.8216 70.2781L81.2731 69.625L82.3187 68.886C82.3015 68.8258 82.2844 68.7571 82.293 68.6883C82.3187 68.3016 82.6529 68.0094 83.0386 68.0438C83.1586 68.0438 83.2614 68.0953 83.3557 68.1555L85.4897 66.643L83.6385 68.4821C83.6814 68.5766 83.6985 68.6797 83.6899 68.7914ZM88.1723 69.2297C88.1723 69.35 88.078 69.4445 87.958 69.4445H87.3495C87.2381 70.3555 86.861 71.1976 86.2353 71.8765L86.621 72.2804C86.6981 72.3663 86.6981 72.5038 86.621 72.5812C86.5782 72.6242 86.5267 72.6413 86.4753 72.6413C86.4239 72.6413 86.3639 72.6156 86.321 72.5726L85.644 71.8679L85.7897 71.7218C86.5524 70.9656 86.981 69.9602 86.981 68.886C86.981 66.686 85.1983 64.9071 83.0129 64.9071C80.8274 64.9071 79.0448 66.6946 79.0448 68.886C79.0448 69.9344 79.4476 70.9226 80.1846 71.6789L80.3303 71.825L79.679 72.5296C79.6019 72.6156 79.4647 72.6242 79.379 72.5382C79.2933 72.4609 79.2848 72.3234 79.3705 72.2374L79.7476 71.825C79.1476 71.1547 78.7877 70.3297 78.6763 69.4445H78.0849C77.9649 69.4445 77.8706 69.35 77.8706 69.2297C77.8706 69.1094 77.9649 69.0149 78.0849 69.0149H78.642C78.642 68.9719 78.6334 68.9289 78.6334 68.886C78.6334 67.8204 79.0105 66.8407 79.6361 66.0845L79.1905 65.6376C79.1048 65.5517 79.1048 65.4228 79.1905 65.3368C79.2762 65.2509 79.4047 65.2509 79.4904 65.3368L79.9275 65.7665C80.6732 65.0189 81.693 64.5376 82.8158 64.4861V63.9103C82.8158 63.79 82.91 63.6955 83.03 63.6955C83.15 63.6955 83.2443 63.79 83.2443 63.9103V64.4861C84.367 64.5376 85.3783 65.0103 86.1239 65.7579L86.5524 65.3368C86.6382 65.2509 86.7667 65.2595 86.8524 65.3368C86.9381 65.4228 86.9295 65.5517 86.8524 65.6376L86.4153 66.0673C87.0495 66.8321 87.4352 67.8118 87.4352 68.886C87.4352 68.9289 87.4266 68.9719 87.4266 69.0149H88.0008C88.1208 69.0149 88.2151 69.1094 88.2151 69.2297H88.1723Z" fill="white"/>
<path d="M83.0129 10.424C79.9104 10.424 77.3821 12.9591 77.3821 16.0699C77.3821 19.1808 79.9104 21.7159 83.0129 21.7159C86.1154 21.7159 88.6436 19.1808 88.6436 16.0699C88.6436 12.9591 86.1154 10.424 83.0129 10.424ZM83.0129 19.3785C81.196 19.3785 79.7133 17.8918 79.7133 16.0699C79.7133 14.2481 81.196 12.7614 83.0129 12.7614C84.8298 12.7614 86.3125 14.2481 86.3125 16.0699C86.3125 17.8918 84.8298 19.3785 83.0129 19.3785Z" fill="white"/>
<path d="M91.669 13.4317C92.286 13.2599 92.6546 12.6239 92.4917 12.0052C91.3433 7.7256 87.4438 4.73505 83.0129 4.73505C78.582 4.73505 74.6653 7.74279 73.5255 12.0396C73.3626 12.6583 73.7311 13.3028 74.3482 13.4661C74.4511 13.4919 74.5453 13.5091 74.6482 13.5091C75.1624 13.5091 75.6338 13.1653 75.7709 12.6411C76.6451 9.35838 79.619 7.07249 83.0129 7.07249C86.4068 7.07249 89.3635 9.34979 90.2463 12.6153C90.4177 13.2341 91.0519 13.6036 91.669 13.4403V13.4317Z" fill="white"/>
<path d="M70.7572 11.5068C70.86 11.5326 70.9543 11.5498 71.0572 11.5498C71.5714 11.5498 72.0428 11.206 72.1799 10.6818C73.4826 5.76629 77.9392 2.33746 83.0214 2.33746C88.1037 2.33746 92.5346 5.7491 93.8459 10.6388C94.0173 11.2576 94.6515 11.6271 95.2685 11.4638C95.8856 11.2919 96.2541 10.656 96.0913 10.0373C94.4972 4.13351 89.1236 0.00860596 83.0214 0.00860596C76.9193 0.00860596 71.5114 4.1507 69.9344 10.0803C69.7716 10.699 70.1401 11.3435 70.7572 11.5068Z" fill="white"/>
<path d="M106.547 30.404C106.556 30.3353 106.564 30.2751 106.564 30.1978V19.4472H101.971V17.8832H91.1805C90.5377 17.8832 90.0149 18.4074 90.0149 19.0519C90.0149 19.6964 90.5377 20.2207 91.1805 20.2207H99.6394V21.7847H104.233V29.0634C97.9082 25.6518 90.6834 23.7096 83.0129 23.701C83.0129 23.701 83.0043 23.701 82.9957 23.701C75.3167 23.701 68.0833 25.6432 61.7497 29.0634V21.7847H66.3435V20.2207H74.8024C75.4452 20.2207 75.968 19.6964 75.968 19.0519C75.968 18.4074 75.4452 17.8832 74.8024 17.8832H64.0123V19.4472H59.4186V30.1978C59.4186 30.2665 59.4271 30.3353 59.4357 30.404C46.5887 38.3531 38.0012 52.5926 38.0012 68.8172C38.0012 93.687 58.1759 113.925 82.9872 113.925C107.798 113.925 127.973 93.687 127.973 68.8172C127.973 52.6012 119.386 38.3531 106.539 30.404H106.547ZM51.8424 97.9923C55.2019 95.5346 58.5701 93.4721 61.964 91.805C64.7151 100.27 68.9403 106.93 73.9711 110.616C65.3321 108.743 57.6702 104.24 51.8424 97.9923ZM64.0209 90.8425C74.9053 85.9957 85.9011 85.1793 96.8712 88.4449C98.7481 89.0035 100.505 89.6652 102.142 90.3613C98.2853 102.985 91.1548 111.484 83.0129 111.484C74.871 111.484 67.9118 103.209 64.0209 90.8425ZM92.0632 110.616C97.1969 106.852 101.474 100.003 104.216 91.3065C109.024 93.6182 112.546 96.2135 114.398 97.7431C108.553 104.12 100.796 108.717 92.0546 110.616H92.0632ZM115.932 95.9814C113.943 94.3315 110.138 91.5128 104.885 89.0378C106.401 83.5208 107.327 77.3592 107.49 70.8367H105.176C105.022 77.0326 104.173 82.8763 102.785 88.1012C101.174 87.4308 99.468 86.7949 97.634 86.2449C89.2007 83.7098 77.2107 82.6185 63.3781 88.6254C61.904 83.263 61.0127 77.2303 60.8498 70.8367H58.5358C58.7072 77.574 59.6843 83.9333 61.2955 89.5878C57.7388 91.298 54.0621 93.4893 50.3082 96.2478C44.369 89.141 40.6923 80.0662 40.3837 70.1578H49.9569V67.468H40.3837C40.6751 57.9721 44.069 49.2497 49.5798 42.2803C51.3624 43.8186 55.2619 46.8435 60.867 49.5161C59.5043 54.7925 58.6815 60.6362 58.5444 66.7891H60.8584C60.9955 60.9713 61.7412 55.4542 62.9753 50.4614C64.6551 51.1746 66.4463 51.8449 68.3746 52.4207C71.2114 53.2715 74.451 53.959 78.0163 54.2683L76.4565 51.802C74.014 51.4754 71.58 50.9512 69.1374 50.2294C67.1491 49.6364 65.3064 48.9403 63.5838 48.1927C64.4323 45.2193 65.4693 42.4522 66.652 39.9686H64.2009C63.181 42.2202 62.2725 44.6521 61.5098 47.2388C56.3418 44.7123 52.7165 41.8936 51.0882 40.5014C56.9503 33.8586 64.8351 29.0634 73.7654 27.0697C71.0143 29.1408 68.5203 32.1055 66.3777 35.7578H68.9574C72.7713 29.7251 77.6392 26.0815 82.9443 26.0471C82.97 26.0471 83.0043 26.0471 83.03 26.0471C83.0643 26.0471 83.0986 26.0471 83.1414 26.0471C88.4208 26.0986 93.2631 29.7079 97.0683 35.6977H99.6566C97.5226 32.0712 95.0371 29.1322 92.3118 27.0783C101.122 29.0462 108.913 33.7469 114.749 40.2608C111.312 42.8217 107.858 44.9701 104.396 46.706C103.659 44.2912 102.802 42.0139 101.842 39.9085H99.3823C100.514 42.2717 101.499 44.8842 102.331 47.6943C98.1568 49.5848 93.9573 50.8911 89.7578 51.5871L88.1808 54.0879C92.7831 53.5121 97.7368 52.2231 102.948 49.92C104.267 55.0503 105.065 60.7651 105.202 66.7977H107.516C107.361 60.4127 106.487 54.3714 105.039 48.9403C108.664 47.17 112.418 44.8928 116.249 42.0311C121.888 49.0434 125.359 57.8604 125.651 67.4766H116.103V68.8172V70.1578H125.651C125.351 79.9373 121.768 88.9004 115.957 95.9728L115.932 95.9814Z" fill="white"/>
<path d="M36.1671 171.545C36.0471 171.639 35.91 171.716 35.7728 171.785C35.6357 171.854 35.4814 171.905 35.3186 171.94C35.1558 171.974 34.9758 172 34.7787 172C34.4616 172 34.1787 171.94 33.9131 171.828C33.6474 171.708 33.416 171.553 33.2274 171.355C33.0303 171.158 32.8846 170.917 32.7732 170.642C32.6618 170.367 32.6104 170.075 32.6104 169.757C32.6104 169.439 32.6618 169.156 32.7732 168.881C32.8846 168.606 33.0389 168.365 33.2274 168.159C33.4245 167.952 33.6559 167.789 33.9216 167.677C34.1873 167.557 34.4873 167.497 34.8044 167.497C35.0015 167.497 35.1815 167.514 35.3443 167.549C35.5071 167.583 35.6528 167.626 35.79 167.686C35.9271 167.746 36.0557 167.815 36.1671 167.901C36.2785 167.987 36.3985 168.081 36.5013 168.184L36.1671 168.545C35.9785 168.374 35.7814 168.227 35.5671 168.116C35.3529 168.004 35.0958 167.944 34.8044 167.944C34.5644 167.944 34.3416 167.987 34.1359 168.081C33.9302 168.176 33.7502 168.296 33.6045 168.459C33.4503 168.623 33.3388 168.812 33.2531 169.027C33.1674 169.241 33.1246 169.482 33.1246 169.731C33.1246 169.981 33.1674 170.221 33.2531 170.445C33.3388 170.668 33.4588 170.857 33.6045 171.02C33.7588 171.184 33.9302 171.313 34.1359 171.407C34.3416 171.502 34.5644 171.545 34.8044 171.545C35.1043 171.545 35.3614 171.493 35.5757 171.381C35.79 171.27 36.0042 171.115 36.2099 170.917L36.5356 171.235C36.4242 171.355 36.3042 171.459 36.1842 171.553L36.1671 171.545Z" fill="white"/>
<path d="M41.695 170.599C41.5836 170.874 41.4379 171.106 41.2408 171.321C41.0436 171.527 40.8122 171.691 40.538 171.82C40.2637 171.948 39.9638 172 39.6295 172C39.2953 172 38.9953 171.94 38.7296 171.82C38.4554 171.699 38.224 171.536 38.0354 171.33C37.8383 171.123 37.6926 170.883 37.5898 170.616C37.4869 170.341 37.4269 170.058 37.4269 169.757C37.4269 169.456 37.4784 169.164 37.5898 168.898C37.7012 168.623 37.8469 168.391 38.044 168.176C38.2411 167.97 38.4725 167.806 38.7468 167.677C39.021 167.557 39.321 167.497 39.6552 167.497C39.9895 167.497 40.2895 167.557 40.5551 167.677C40.8294 167.798 41.0608 167.961 41.2493 168.167C41.4465 168.374 41.5922 168.614 41.695 168.881C41.7978 169.156 41.8578 169.439 41.8578 169.74C41.8578 170.041 41.8064 170.333 41.695 170.599ZM41.2236 169.044C41.1379 168.82 41.0179 168.631 40.8637 168.468C40.7094 168.305 40.5294 168.176 40.3237 168.081C40.118 167.987 39.8866 167.935 39.6381 167.935C39.3896 167.935 39.1582 167.978 38.9525 168.073C38.7468 168.167 38.5668 168.296 38.4125 168.459C38.2583 168.623 38.1469 168.812 38.0612 169.027C37.9754 169.241 37.9326 169.473 37.9326 169.723C37.9326 169.972 37.9754 170.204 38.0612 170.427C38.1469 170.651 38.2668 170.84 38.4211 171.003C38.5754 171.166 38.7554 171.295 38.961 171.39C39.1667 171.484 39.3981 171.536 39.6467 171.536C39.8952 171.536 40.118 171.493 40.3323 171.398C40.5466 171.304 40.718 171.175 40.8722 171.012C41.0265 170.848 41.1379 170.659 41.2236 170.445C41.3093 170.23 41.3522 169.998 41.3522 169.748C41.3522 169.499 41.3093 169.267 41.2236 169.044Z" fill="white"/>
<path d="M46.4601 167.566H46.9401V171.923H46.5458L43.7433 168.356V171.923H43.2634V167.566H43.7262L46.4601 171.055V167.566Z" fill="white"/>
<path d="M50.1797 171.923H49.6912V168.021H48.2342V167.566H51.6366V168.021H50.1797V171.923Z" fill="white"/>
<path d="M55.9219 171.923L54.662 170.23H53.4193V171.923H52.9308V167.566H54.7991C55.0391 167.566 55.2534 167.6 55.4505 167.66C55.6476 167.72 55.8104 167.806 55.9476 167.927C56.0847 168.038 56.1875 168.176 56.2647 168.339C56.3418 168.502 56.3761 168.674 56.3761 168.872C56.3761 169.052 56.3504 169.216 56.2904 169.362C56.2304 169.508 56.1533 169.628 56.0418 169.731C55.939 169.834 55.8104 169.929 55.6647 169.998C55.519 170.066 55.3648 170.118 55.1934 170.144L56.5304 171.923H55.9304H55.9219ZM55.5876 168.253C55.3905 168.099 55.1162 168.021 54.7649 168.021H53.4193V169.791H54.7563C54.9191 169.791 55.0648 169.774 55.2019 169.731C55.3391 169.688 55.4591 169.628 55.5533 169.551C55.6562 169.474 55.7333 169.379 55.7847 169.267C55.8447 169.156 55.8704 169.027 55.8704 168.889C55.8704 168.614 55.7762 168.399 55.579 168.253H55.5876Z" fill="white"/>
<path d="M61.8611 170.599C61.7497 170.874 61.604 171.106 61.4069 171.321C61.2098 171.527 60.9784 171.691 60.7041 171.82C60.4299 171.948 60.1299 172 59.7956 172C59.4614 172 59.1614 171.94 58.8958 171.82C58.6215 171.699 58.3901 171.536 58.2016 171.33C58.0044 171.123 57.8587 170.883 57.7559 170.616C57.653 170.341 57.6016 170.058 57.6016 169.757C57.6016 169.456 57.653 169.164 57.7645 168.898C57.8759 168.623 58.0216 168.391 58.2187 168.176C58.4158 167.97 58.6472 167.806 58.9215 167.677C59.1957 167.549 59.4957 167.497 59.8299 167.497C60.1642 167.497 60.4641 167.557 60.7298 167.677C61.0041 167.798 61.2355 167.961 61.424 168.167C61.6211 168.374 61.7668 168.614 61.8697 168.881C61.9725 169.156 62.024 169.439 62.024 169.74C62.024 170.041 61.9725 170.333 61.8611 170.599ZM61.3897 169.044C61.304 168.82 61.184 168.631 61.0298 168.468C60.8755 168.305 60.6955 168.176 60.4898 168.081C60.2842 167.987 60.0528 167.935 59.8042 167.935C59.5557 167.935 59.3243 167.978 59.1186 168.073C58.9129 168.167 58.7329 168.296 58.5786 168.459C58.4244 168.623 58.313 168.812 58.2273 169.027C58.1416 169.241 58.0987 169.473 58.0987 169.723C58.0987 169.972 58.1416 170.204 58.2273 170.427C58.313 170.651 58.433 170.84 58.5872 171.003C58.7415 171.166 58.9215 171.295 59.1272 171.39C59.3328 171.484 59.5642 171.536 59.8128 171.536C60.0613 171.536 60.2927 171.493 60.4984 171.398C60.7041 171.304 60.8841 171.175 61.0384 171.012C61.1926 170.848 61.304 170.659 61.3897 170.445C61.4754 170.23 61.5183 169.998 61.5183 169.748C61.5183 169.499 61.4754 169.267 61.3897 169.044Z" fill="white"/>
<path d="M63.4295 167.566H63.918V171.467H66.3606V171.923H63.4295V167.566Z" fill="white"/>
<path d="M70.7829 168.013H68.1346V169.499H70.5001V169.946H68.1346V171.467H70.8172V171.914H67.6461V167.557H70.7829V168.004V168.013Z" fill="white"/>
<path d="M72.5998 168.932C72.6341 169.018 72.6941 169.095 72.7798 169.164C72.8655 169.233 72.9855 169.293 73.1397 169.353C73.294 169.413 73.4911 169.465 73.7311 169.508C74.211 169.62 74.571 169.766 74.8024 169.955C75.0338 170.144 75.1452 170.41 75.1452 170.745C75.1452 170.934 75.1109 171.106 75.0338 171.252C74.9567 171.407 74.8624 171.536 74.7253 171.648C74.5967 171.759 74.4424 171.837 74.2625 171.897C74.0825 171.957 73.8854 171.983 73.6711 171.983C73.3197 171.983 73.0026 171.923 72.7198 171.811C72.437 171.699 72.1541 171.527 71.897 171.287L72.2056 170.926C72.437 171.132 72.6598 171.287 72.8912 171.39C73.1226 171.493 73.3883 171.545 73.6882 171.545C73.9882 171.545 74.2196 171.476 74.391 171.338C74.5624 171.201 74.6567 171.02 74.6567 170.797C74.6567 170.694 74.6396 170.599 74.6053 170.522C74.571 170.445 74.511 170.367 74.4339 170.298C74.3482 170.23 74.2367 170.17 74.0911 170.118C73.9454 170.066 73.7568 170.015 73.5254 169.963C73.2769 169.912 73.0626 169.843 72.8741 169.774C72.6941 169.706 72.5398 169.62 72.4198 169.516C72.2998 169.413 72.2141 169.302 72.1541 169.164C72.0942 169.035 72.0684 168.872 72.0684 168.691C72.0684 168.511 72.1027 168.356 72.1713 168.21C72.2398 168.064 72.3427 167.935 72.4712 167.832C72.5998 167.729 72.7541 167.643 72.9255 167.583C73.0969 167.523 73.2854 167.488 73.4997 167.488C73.8168 167.488 74.0996 167.531 74.331 167.617C74.5624 167.703 74.8024 167.841 75.0252 168.013L74.7424 168.391C74.5367 168.227 74.3396 168.107 74.1339 168.03C73.9282 167.952 73.714 167.918 73.4911 167.918C73.354 167.918 73.2254 167.935 73.1055 167.978C72.994 168.013 72.8912 168.064 72.8141 168.124C72.7369 168.184 72.6684 168.262 72.6255 168.348C72.5827 168.434 72.557 168.528 72.557 168.631C72.557 168.734 72.5741 168.829 72.6084 168.915L72.5998 168.932Z" fill="white"/>
<path d="M82.0187 167.566H82.5501L80.6817 171.948H80.2446L78.3763 167.566H78.9248L80.4675 171.313L82.0187 167.566Z" fill="white"/>
<path d="M87.5894 170.599C87.478 170.874 87.3323 171.106 87.1352 171.321C86.9381 171.527 86.7067 171.691 86.4324 171.82C86.1582 171.94 85.8582 172 85.524 172C85.1897 172 84.8898 171.94 84.6241 171.82C84.3498 171.699 84.1184 171.536 83.9299 171.33C83.7328 171.123 83.5871 170.883 83.4842 170.616C83.3814 170.341 83.33 170.058 83.33 169.757C83.33 169.456 83.3814 169.164 83.4928 168.898C83.6042 168.623 83.7499 168.391 83.947 168.176C84.1441 167.961 84.3755 167.806 84.6498 167.677C84.924 167.557 85.224 167.497 85.5583 167.497C85.8925 167.497 86.1925 167.557 86.4581 167.677C86.7324 167.798 86.9638 167.961 87.1524 168.167C87.3495 168.374 87.4952 168.614 87.598 168.881C87.7009 169.156 87.7523 169.439 87.7523 169.74C87.7523 170.041 87.7009 170.333 87.5894 170.599ZM87.1181 169.044C87.0324 168.82 86.9124 168.631 86.7581 168.468C86.6038 168.305 86.4239 168.176 86.2182 168.081C86.0125 167.987 85.7811 167.935 85.5325 167.935C85.284 167.935 85.0526 167.978 84.8469 168.073C84.6412 168.167 84.4612 168.296 84.307 168.459C84.1613 168.623 84.0413 168.812 83.9556 169.027C83.8699 169.241 83.827 169.473 83.827 169.723C83.827 169.972 83.8699 170.204 83.9556 170.427C84.0413 170.651 84.1613 170.84 84.3155 171.003C84.4698 171.166 84.6498 171.295 84.8555 171.39C85.0612 171.484 85.2926 171.536 85.5411 171.536C85.7897 171.536 86.0211 171.493 86.2267 171.398C86.4324 171.304 86.6124 171.175 86.7667 171.012C86.9124 170.848 87.0324 170.659 87.1181 170.445C87.2038 170.23 87.2466 169.998 87.2466 169.748C87.2466 169.499 87.2038 169.267 87.1181 169.044Z" fill="white"/>
<path d="M89.1578 167.566H89.6463V171.467H92.0889V171.923H89.1578V167.566Z" fill="white"/>
<path d="M96.8026 170.058C96.8026 170.376 96.7598 170.659 96.6741 170.9C96.5884 171.141 96.4598 171.338 96.3055 171.502C96.1513 171.665 95.9541 171.785 95.7313 171.863C95.5085 171.94 95.2599 171.983 94.9943 171.983C94.7286 171.983 94.48 171.94 94.2572 171.863C94.0344 171.785 93.8458 171.665 93.683 171.502C93.5202 171.338 93.4002 171.141 93.3145 170.909C93.2288 170.668 93.1859 170.402 93.1859 170.092V167.557H93.6744V170.058C93.6744 170.531 93.7944 170.891 94.0258 171.149C94.2572 171.407 94.5829 171.527 95.0028 171.527C95.4228 171.527 95.7227 171.407 95.9541 171.166C96.1855 170.926 96.3055 170.565 96.3055 170.092V167.557H96.794V170.049L96.8026 170.058Z" fill="white"/>
<path d="M100.411 170.728H100.385L98.8081 168.399V171.923H98.3281V167.566H98.8252L100.411 169.946L101.996 167.566H102.493V171.923H102.005V168.399L100.419 170.728H100.411Z" fill="white"/>
<path d="M107.224 168.013H104.576V169.499H106.95V169.946H104.576V171.467H107.259V171.914H104.087V167.557H107.224V168.004V168.013ZM105.313 167.179L105.904 166.277L106.401 166.509L105.699 167.179H105.313Z" fill="white"/>
<path d="M110.25 171.923H109.761V168.021H108.304V167.566H111.707V168.021H110.25V171.923Z" fill="white"/>
<path d="M116 171.923L114.74 170.23H113.498V171.923H113.009V167.566H114.878C115.118 167.566 115.332 167.6 115.529 167.66C115.726 167.72 115.889 167.806 116.026 167.927C116.163 168.038 116.266 168.176 116.343 168.339C116.42 168.502 116.455 168.674 116.455 168.872C116.455 169.052 116.429 169.216 116.369 169.362C116.309 169.508 116.232 169.628 116.12 169.731C116.017 169.834 115.889 169.929 115.743 169.998C115.597 170.066 115.443 170.118 115.272 170.144L116.609 171.923H116.009H116ZM115.666 168.253C115.469 168.099 115.195 168.021 114.843 168.021H113.498V169.791H114.835C114.998 169.791 115.143 169.774 115.28 169.731C115.417 169.688 115.537 169.628 115.632 169.551C115.726 169.474 115.812 169.379 115.863 169.267C115.915 169.156 115.949 169.027 115.949 168.889C115.949 168.614 115.855 168.399 115.657 168.253H115.666Z" fill="white"/>
<path d="M118.4 167.566V171.923H117.911V167.566H118.4Z" fill="white"/>
<path d="M123.414 171.545C123.294 171.639 123.157 171.716 123.019 171.785C122.882 171.854 122.728 171.905 122.565 171.94C122.402 171.974 122.222 172 122.025 172C121.708 172 121.425 171.94 121.16 171.828C120.894 171.708 120.663 171.553 120.474 171.355C120.277 171.158 120.131 170.917 120.02 170.642C119.908 170.367 119.857 170.075 119.857 169.757C119.857 169.439 119.908 169.156 120.02 168.881C120.131 168.606 120.286 168.365 120.474 168.159C120.671 167.952 120.903 167.789 121.168 167.677C121.434 167.557 121.734 167.497 122.051 167.497C122.248 167.497 122.428 167.514 122.591 167.549C122.754 167.583 122.899 167.626 123.037 167.686C123.174 167.746 123.302 167.815 123.414 167.901C123.525 167.987 123.645 168.081 123.748 168.184L123.414 168.545C123.225 168.374 123.028 168.227 122.814 168.116C122.6 168.004 122.342 167.944 122.051 167.944C121.811 167.944 121.588 167.987 121.383 168.081C121.177 168.176 120.997 168.296 120.851 168.459C120.697 168.623 120.585 168.812 120.5 169.027C120.414 169.241 120.371 169.482 120.371 169.731C120.371 169.981 120.414 170.221 120.5 170.445C120.585 170.668 120.705 170.857 120.851 171.02C121.005 171.184 121.177 171.313 121.383 171.407C121.588 171.502 121.811 171.545 122.051 171.545C122.351 171.545 122.608 171.493 122.822 171.381C123.037 171.27 123.251 171.115 123.457 170.917L123.782 171.235C123.671 171.355 123.551 171.459 123.431 171.553L123.414 171.545Z" fill="white"/>
<path d="M128.942 170.599C128.83 170.874 128.685 171.106 128.487 171.321C128.29 171.527 128.059 171.691 127.785 171.82C127.51 171.94 127.21 172 126.876 172C126.542 172 126.242 171.94 125.976 171.82C125.702 171.699 125.471 171.536 125.282 171.33C125.085 171.123 124.939 170.883 124.836 170.616C124.734 170.341 124.682 170.058 124.682 169.757C124.682 169.456 124.734 169.164 124.845 168.898C124.956 168.623 125.102 168.391 125.299 168.176C125.496 167.961 125.728 167.806 126.002 167.677C126.276 167.557 126.576 167.497 126.91 167.497C127.245 167.497 127.545 167.557 127.81 167.677C128.085 167.798 128.316 167.961 128.505 168.167C128.702 168.374 128.847 168.614 128.95 168.881C129.053 169.156 129.104 169.439 129.104 169.74C129.104 170.041 129.053 170.333 128.942 170.599ZM128.47 169.044C128.385 168.82 128.265 168.631 128.11 168.468C127.956 168.305 127.776 168.176 127.57 168.081C127.365 167.987 127.133 167.935 126.885 167.935C126.636 167.935 126.405 167.978 126.199 168.073C125.993 168.167 125.813 168.296 125.659 168.459C125.513 168.623 125.393 168.812 125.308 169.027C125.222 169.241 125.179 169.473 125.179 169.723C125.179 169.972 125.222 170.204 125.308 170.427C125.393 170.651 125.513 170.84 125.668 171.003C125.822 171.166 126.002 171.295 126.208 171.39C126.413 171.484 126.645 171.536 126.893 171.536C127.142 171.536 127.373 171.493 127.579 171.398C127.785 171.304 127.965 171.175 128.119 171.012C128.265 170.848 128.385 170.659 128.47 170.445C128.556 170.23 128.599 169.998 128.599 169.748C128.599 169.499 128.556 169.267 128.47 169.044Z" fill="white"/>
<path d="M130.913 168.932C130.947 169.018 131.007 169.095 131.093 169.164C131.178 169.233 131.298 169.293 131.453 169.353C131.607 169.413 131.804 169.465 132.044 169.508C132.524 169.62 132.884 169.766 133.115 169.955C133.347 170.144 133.458 170.41 133.458 170.745C133.458 170.934 133.424 171.106 133.347 171.252C133.27 171.407 133.175 171.536 133.038 171.648C132.91 171.759 132.755 171.837 132.575 171.897C132.395 171.957 132.198 171.983 131.984 171.983C131.633 171.983 131.316 171.923 131.033 171.811C130.75 171.699 130.476 171.527 130.21 171.287L130.51 170.926C130.741 171.132 130.964 171.287 131.196 171.39C131.427 171.493 131.693 171.545 131.993 171.545C132.293 171.545 132.524 171.476 132.695 171.338C132.867 171.201 132.961 171.02 132.961 170.797C132.961 170.694 132.944 170.599 132.91 170.522C132.875 170.445 132.815 170.367 132.738 170.298C132.653 170.23 132.541 170.17 132.395 170.118C132.25 170.066 132.061 170.015 131.83 169.963C131.581 169.912 131.367 169.843 131.178 169.774C130.99 169.706 130.844 169.62 130.724 169.516C130.604 169.413 130.519 169.302 130.459 169.164C130.399 169.027 130.373 168.872 130.373 168.691C130.373 168.511 130.407 168.356 130.476 168.21C130.544 168.064 130.647 167.935 130.776 167.832C130.904 167.729 131.058 167.643 131.23 167.583C131.401 167.523 131.59 167.488 131.804 167.488C132.121 167.488 132.404 167.531 132.635 167.617C132.867 167.703 133.107 167.841 133.33 168.013L133.047 168.391C132.841 168.227 132.644 168.107 132.438 168.03C132.233 167.952 132.018 167.918 131.796 167.918C131.658 167.918 131.53 167.935 131.41 167.978C131.29 168.021 131.196 168.064 131.118 168.124C131.041 168.184 130.973 168.262 130.93 168.348C130.887 168.434 130.861 168.528 130.861 168.631C130.861 168.734 130.879 168.829 130.913 168.915V168.932Z" fill="white"/>
</g>
<defs>
<clipPath id="clip0_170_8">
<rect width="166" height="172" fill="white"/>
</clipPath>
</defs>
</svg>
