<svg xmlns="http://www.w3.org/2000/svg" xmlns:xlink="http://www.w3.org/1999/xlink" version="1.1" id="Capa_1" x="0px" y="0px" viewBox="0 0 500 500" style="enable-background:new 0 0 500 500;" xml:space="preserve">
<style type="text/css">
	.st0{fill:#4B4D4F;}
	.st1{fill-rule:evenodd;clip-rule:evenodd;}
	.st2{fill:#045a6e;}
	.st3{fill:#95B422;}
</style>
<polygon class="st0" points="279.44,220.64 279.44,220.64 279.44,220.64 " fill="#045a6e"/>
<g>
	<path d="M404.81,188.14c5.96-5.15,4.72-11.42-2.75-13.91l-26.67-8.92c-7.47-2.49-11.23-10.54-8.34-17.87l10.29-26.18   c2.89-7.33-1.13-12.31-8.9-11.04l-27.77,4.49c-7.78,1.26-14.84-4.12-15.69-11.95l-3.06-27.97c-0.85-7.84-6.7-10.36-13.01-5.64   l-22.49,16.89c-6.31,4.73-15.06,3.24-19.45-3.3L251.27,59.4c-4.4-6.54-10.77-6.07-14.14,1.06l-12.08,25.41   c-3.37,7.11-11.81,9.87-18.75,6.12l-24.75-13.37c-6.92-3.75-12.34-0.36-12.03,7.51l1.12,28.11c0.32,7.87-5.88,14.23-13.76,14.13   l-28.12-0.34c-7.87-0.1-11.1,5.41-7.17,12.23l14.06,24.38c3.93,6.82,1.41,15.33-5.62,18.91l-25.06,12.76   c-7.02,3.58-7.32,9.96-0.67,14.17l23.77,15.05c6.66,4.22,8.37,12.92,3.82,19.36l-16.26,22.95c-4.55,6.43-1.86,12.21,6,12.85   l28.03,2.28c7.86,0.64,13.43,7.55,12.37,15.36l-3.73,27.88c-1.04,7.8,4.03,11.67,11.29,8.59l25.88-11.01   c7.24-3.09,15.4,0.44,18.1,7.85l9.65,26.42c2.7,7.4,9,8.46,13.98,2.36l17.8-21.78c4.99-6.1,13.84-6.76,19.67-1.46l20.83,18.91   c5.84,5.3,11.9,3.31,13.48-4.41l5.64-27.56c1.58-7.72,9.11-12.42,16.74-10.43l27.22,7.06c7.64,1.98,12.09-2.59,9.89-10.17   l-7.81-27.01c-2.19-7.57,2.31-15.23,9.98-17.02l27.39-6.41c7.68-1.79,9.49-7.9,4.03-13.58l-19.48-20.3   c-5.45-5.69-5.04-14.56,0.92-19.71L404.81,188.14z" fill="#045a6e"/>
	<path d="M370.66,292.69l7.81,27.01c2.19,7.57-2.26,12.14-9.89,10.17l-27.22-7.07c-7.63-1.98-15.17,2.73-16.74,10.44l-4.85,23.68   l79.63,88.28l6.31-53.81l55.41-1.85l-91-100.91C370.1,289.98,370.26,291.33,370.66,292.69z" fill="#045a6e"/>
	<path d="M185.51,334.58l-25.88,11.01c-7.25,3.09-12.33-0.78-11.29-8.59l3.74-27.88c1.04-7.8-4.52-14.72-12.39-15.35l-4.03-0.33   l-96.78,87.28l53.81,6.31l1.85,55.4l109.53-98.77l-0.45-1.23C200.91,335.02,192.76,331.49,185.51,334.58z" fill="#045a6e"/>
</g>
</svg>