<svg width="49" height="46" viewBox="0 0 49 46" fill="none" xmlns="http://www.w3.org/2000/svg">
<g clip-path="url(#clip0_32_734)">
<path d="M42.4644 15.7077C43.1548 15.1019 43.014 14.3601 42.1426 14.0675L39.0458 13.0194C38.1811 12.7267 37.7454 11.7807 38.0805 10.9164L39.2737 7.83342C39.6088 6.96909 39.1463 6.3838 38.2414 6.53352L35.0172 7.06437C34.1122 7.2141 33.2945 6.58116 33.1939 5.65558L32.8386 2.3616C32.7381 1.43602 32.0611 1.14338 31.3304 1.69464L28.7229 3.68192C27.9923 4.23999 26.9734 4.06304 26.464 3.29399L24.6407 0.54447C24.1313 -0.224579 23.3939 -0.170133 22.9984 0.666973L21.5975 3.6615C21.2087 4.49861 20.2233 4.82528 19.4189 4.38291L16.55 2.80398C15.7456 2.3616 15.1155 2.76314 15.1557 3.68872L15.2831 7.00312C15.3233 7.9287 14.5994 8.67733 13.6878 8.67052L10.4233 8.62969C9.5117 8.61608 9.13632 9.26943 9.59214 10.0725L11.221 12.9445C11.6768 13.7476 11.3819 14.7481 10.5708 15.17L7.66163 16.6741C6.84385 17.096 6.81033 17.8447 7.58119 18.3415L10.3429 20.111C11.1137 20.6078 11.3148 21.6355 10.7853 22.3909L8.89501 25.0928C8.36546 25.8482 8.68051 26.5288 9.59214 26.6037L12.8432 26.8691C13.7548 26.9439 14.3983 27.7606 14.2776 28.6794L13.8419 31.9666C13.7213 32.8853 14.3112 33.3413 15.149 32.9806L18.1521 31.6807C18.9899 31.32 19.9418 31.7352 20.2501 32.6063L21.3696 35.7165C21.6846 36.5877 22.4153 36.717 22.9917 35.9956L25.0563 33.4298C25.6328 32.7084 26.6651 32.6335 27.3421 33.2597L29.7619 35.4851C30.4389 36.1113 31.1428 35.8731 31.3237 34.9679L31.9806 31.7216C32.1616 30.8096 33.0397 30.2583 33.9246 30.4897L37.0817 31.32C37.9666 31.5514 38.4827 31.0138 38.228 30.1222L37.3231 26.9371C37.0683 26.0456 37.5912 25.1404 38.4827 24.9294L41.66 24.174C42.5515 23.963 42.7593 23.2416 42.1292 22.5747L39.8703 20.1858C39.2402 19.5121 39.2871 18.4708 39.9775 17.8651L42.4443 15.7009L42.4644 15.7077Z" fill="#95B422"/>
<path d="M38.5029 28.0328L39.4078 31.2179C39.6625 32.1095 39.1464 32.6471 38.2616 32.4157L35.1044 31.5854C34.2196 31.354 33.3415 31.9053 33.1605 32.8173L32.5974 35.6076L41.841 46.0068L42.5717 39.6706L49 39.4529L38.4426 27.5632C38.4426 27.7198 38.456 27.8763 38.5029 28.0396V28.0328Z" fill="#95B422"/>
<path d="M17.0126 32.967L14.0096 34.2669C13.165 34.6276 12.5818 34.1716 12.7025 33.2528L13.1382 29.9657C13.2588 29.0469 12.6153 28.2302 11.7037 28.1553L11.2345 28.1145L0 38.398L6.24063 39.1398L6.45513 45.6665L19.1643 34.0287L19.1107 33.8858C18.7956 33.0146 17.8505 32.5995 17.0126 32.9602V32.967Z" fill="#95B422"/>
</g>
<defs>
<clipPath id="clip0_32_734">
<rect width="49" height="46" fill="white"/>
</clipPath>
</defs>
</svg>
