<svg width="49" height="63" viewBox="0 0 49 63" fill="none" xmlns="http://www.w3.org/2000/svg">
<path fill-rule="evenodd" clip-rule="evenodd" d="M23.2528 22.6048C22.7382 23.4236 22.3405 24.2651 22.0831 25.1521C20.4924 30.4741 22.7382 36.3419 27.9314 39.2076C28.7736 39.708 29.6391 40.0491 30.5515 40.3675C31.6276 40.6404 32.6569 40.8224 33.7329 40.8224L40.2128 59.4721C40.6807 60.7457 41.7568 61.6327 42.9732 62.0194C43.7686 62.2923 44.6108 62.2923 45.4763 61.9511L46.2015 61.7692C47.5115 61.3371 48.4472 60.3136 48.8215 59.1082C49.0321 58.3349 49.1023 57.4479 48.7747 56.6746L42.2714 37.9567C43.3943 37.0697 44.2833 35.978 45.0084 34.7044C45.5231 33.8629 45.9208 33.0441 46.2015 32.1571C47.7922 26.8351 45.5465 20.9673 40.3532 18.0788C39.4877 17.5785 38.6455 17.1918 37.7332 16.9417C32.2592 15.3269 26.2237 17.5785 23.2528 22.6276V22.6048ZM8.9128 17.8287H22.3639C22.5276 17.8287 22.6914 17.8969 22.7849 18.0334C22.9019 18.1243 22.9721 18.2835 22.9721 18.4427V20.5124C22.9721 20.6489 22.9019 20.8308 22.7849 20.9218C22.6914 21.0355 22.5276 21.081 22.3639 21.081H8.9128C8.72565 21.081 8.58529 21.0355 8.46832 20.9218C8.37475 20.8308 8.28118 20.6489 8.28118 20.5124V18.4427C8.28118 18.3063 8.35136 18.1243 8.46832 18.0334C8.58529 17.9196 8.72565 17.8287 8.9128 17.8287ZM8.9128 37.3426H21.4749C21.6387 37.3426 21.8024 37.4109 21.9194 37.5473C22.013 37.6383 22.0831 37.7748 22.0831 37.9567V40.0036C22.0831 40.1628 22.013 40.3448 21.9194 40.4358C21.8024 40.5495 21.6387 40.595 21.4749 40.595H8.9128C8.72565 40.595 8.58529 40.5495 8.46832 40.4358C8.37475 40.3448 8.28118 40.1628 8.28118 40.0036V37.9567C8.28118 37.7975 8.35136 37.6383 8.46832 37.5473C8.58529 37.4336 8.72565 37.3426 8.9128 37.3426ZM8.9128 30.8607H19.931C20.0947 30.8607 20.2585 30.9289 20.3521 31.0199C20.469 31.1564 20.5392 31.2928 20.5392 31.452V33.499C20.5392 33.6582 20.469 33.8174 20.3521 33.9311C20.2585 34.0221 20.0947 34.0903 19.931 34.0903H8.9128C8.72565 34.0903 8.58529 34.0221 8.46832 33.9311C8.37475 33.8174 8.28118 33.6582 8.28118 33.499V31.452C8.28118 31.2928 8.35136 31.1336 8.46832 31.0199C8.58529 30.9289 8.72565 30.8607 8.9128 30.8607ZM8.9128 24.3561H19.931C20.0947 24.3561 20.2585 24.4243 20.3521 24.538C20.469 24.6517 20.5392 24.8109 20.5392 24.9701V27.0171C20.5392 27.1763 20.469 27.3355 20.3521 27.4264C20.2585 27.5402 20.0947 27.6084 19.931 27.6084H8.9128C8.72565 27.6084 8.58529 27.5402 8.46832 27.4264C8.37475 27.3355 8.28118 27.1763 8.28118 27.0171V24.9701C8.28118 24.8109 8.35136 24.6517 8.46832 24.538C8.58529 24.447 8.72565 24.3561 8.9128 24.3561ZM25.0307 25.9481C26.4109 21.1492 31.6042 18.3518 36.5401 19.7619C41.4761 21.081 44.3534 26.1301 42.9031 30.9289C41.5463 35.7278 36.353 38.5253 31.417 37.1379C26.4811 35.7961 23.6037 30.747 25.0307 25.9481ZM16.0009 8.43558C15.2757 8.43558 14.6909 8.79947 14.6909 9.32258V11.0283H33.2183V9.32258C33.2183 8.79947 32.6335 8.43558 31.9083 8.43558H27.9782V1.27136C23.8844 -1.54884 19.9544 1.20313 19.9544 1.20313V8.43558H16.0009ZM48.0729 6.2522V40.0946L48.0028 49.4422C48.0028 49.8971 47.8858 50.3292 47.6753 50.6704L43.3475 38.2069C44.33 37.3199 45.1722 36.2737 45.8506 35.1365C46.3652 34.3177 46.7629 33.3625 47.0437 32.3845L47.0904 32.339C48.5408 27.4719 46.9501 22.3546 43.2774 19.0341V9.70922C43.2774 9.36806 43.1604 9.14063 42.9498 8.93594C42.6925 8.66301 42.4352 8.59478 42.0843 8.59478H33.3587C33.0311 8.23089 32.4463 8.04894 31.9083 8.04894H28.3759V3.9551H45.6635C46.3886 3.9551 46.9033 4.15979 47.3712 4.59192C47.8156 5.04679 48.0963 5.63812 48.0963 6.2522H48.0729ZM36.5167 51.8075H2.43289C1.7077 51.8075 1.16966 51.5801 0.725188 51.1025C0.257325 50.6703 0 50.1018 0 49.4422L0.0467863 38.9802V6.2522C0.0467863 5.61538 0.327504 5.04679 0.771974 4.59192C1.23984 4.15979 1.75449 3.9551 2.47968 3.9551H19.5801V8.04894H16.0009C15.5565 8.04894 14.9716 8.25363 14.6441 8.59478H5.96526C5.70793 8.59478 5.38043 8.66301 5.16989 8.93594C4.98274 9.14063 4.84238 9.36806 4.84238 9.70922V40.0946L4.77221 45.9852C4.77221 46.3036 4.91256 46.5538 5.1231 46.8039C5.38043 46.9859 5.63775 47.1224 5.96526 47.1224H34.8792L36.5401 51.7848L36.5167 51.8075Z" fill="#95B422"/>
</svg>
