<svg width="47" height="47" viewBox="0 0 47 47" fill="none" xmlns="http://www.w3.org/2000/svg">
<path d="M43.9186 0C42.7389 0 41.2383 0.1424 39.4649 0.427201C37.6193 0.719912 36.3434 1.06009 35.573 1.46356C34.8026 1.86703 33.6471 2.87965 32.0341 4.5489C30.4694 6.17068 28.4712 8.71015 26.0799 12.104C23.6966 15.4821 21.6022 18.7731 19.8368 21.8822C18.2559 24.6669 16.651 27.7206 15.0461 30.98C13.9227 29.5718 12.735 28.4405 11.5153 27.6177C9.96654 26.5656 8.48199 26.0355 7.10978 26.0355C5.73758 26.0355 4.17278 26.6368 2.55182 27.8313C0.858631 29.0734 0 30.4895 0 32.0322C0 33.1951 0.730237 34.5479 2.23886 36.1776C4.42957 38.543 6.19498 40.7423 7.49496 42.7122C8.45791 44.1757 9.12395 45.1013 9.51716 45.5364C9.96654 46.0269 10.5363 46.3988 11.2184 46.644C11.8684 46.8734 12.9517 46.9921 14.5325 46.9921C16.6992 46.9921 18.1757 46.7627 19.0423 46.2959C19.909 45.8292 20.5991 45.1567 21.0806 44.3181C21.5219 43.5587 22.204 42.0318 23.175 39.6664C25.5904 33.7251 28.8805 27.5149 32.9409 21.1939C36.9933 14.8967 40.9655 9.9522 44.7371 6.51877C45.6599 5.6881 46.2296 5.10268 46.5105 4.65965C46.8315 4.16916 46.992 3.59165 46.992 2.95085C46.992 2.14392 46.7031 1.43982 46.1334 0.870224C45.5636 0.292712 44.8093 0 43.9105 0L43.9186 0Z" fill="#95B422"/>
</svg>
