<svg xmlns="http://www.w3.org/2000/svg" xmlns:xlink="http://www.w3.org/1999/xlink" version="1.1" id="Capa_1" x="0px" y="0px" viewBox="0 0 500 500" style="enable-background:new 0 0 500 500;" xml:space="preserve">
<style type="text/css">
	.st0{fill:#4B4D4F;}
	.st1{fill-rule:evenodd;clip-rule:evenodd;}
	.st2{fill:#045a6e;}
	.st3{fill:#95B422;}
</style>
<polygon class="st0" points="279.44,220.64 279.44,220.64 279.44,220.64 " fill="#045a6e"/>
<g>
	<path d="M411.52,78.42c-8.5,0-19.3,1.04-32.09,3.1c-13.3,2.15-22.46,4.63-27.99,7.59c-5.52,2.95-13.85,10.33-25.48,22.53   c-11.25,11.83-25.67,30.38-42.86,55.16c-17.13,24.69-32.24,48.72-44.92,71.42c-11.35,20.32-22.94,42.64-34.5,66.44   c-8.11-10.28-16.64-18.53-25.42-24.56c-11.16-7.65-21.83-11.53-31.72-11.53c-10.1,0-21.15,4.41-32.83,13.13   c-12.17,9.08-18.34,19.4-18.34,30.65c0,8.47,5.26,18.38,16.1,30.29c15.78,17.3,28.51,33.35,37.83,47.73   c6.93,10.68,11.7,17.44,14.57,20.6c3.23,3.58,7.35,6.29,12.24,8.07c4.7,1.69,12.5,2.52,23.86,2.52c15.59,0,26.21-1.66,32.47-5.06   c6.27-3.43,11.21-8.29,14.7-14.47c3.16-5.57,8.1-16.69,15.09-33.98c17.4-43.36,41.06-88.75,70.31-134.88   c29.17-46,57.76-82.08,84.92-107.18c6.66-6.05,10.72-10.36,12.77-13.56c2.31-3.61,3.48-7.8,3.48-12.47   c0-5.91-2.07-11.03-6.16-15.21C423.43,80.56,418.04,78.42,411.52,78.42z" fill="#045a6e"/>
</g>
</svg>