<svg width="52" height="63" viewBox="0 0 52 63" fill="none" xmlns="http://www.w3.org/2000/svg">
<path fill-rule="evenodd" clip-rule="evenodd" d="M39.3383 0L51.0596 12.416C51.4266 12.7798 51.9541 13.0072 51.9541 13.5302C51.9771 15.4858 52 17.1913 52 18.1237C52 28.1974 49.3163 37.8164 44.2241 45.9345C39.7283 53.143 33.5809 58.7371 26.5161 62.1253C26.3555 62.1935 26.172 62.2163 25.9885 62.2163C25.805 62.2163 25.6445 62.1708 25.461 62.1253C17.9144 58.5324 11.5148 52.4608 6.97309 44.5701C2.40847 36.7021 0 27.5834 0 18.1464C0 17.2596 -4.2725e-08 15.5768 0.0458756 13.553L0.917512 12.4387C2.31672 10.9151 11.6524 0.022736 12.6617 0.022736H39.3154L39.3383 0ZM24.1076 26.6966L21.2175 24.036C20.8963 23.7177 20.4605 23.5812 20.0018 23.5812C19.5201 23.5812 19.1072 23.7404 18.7631 24.036L17.8685 24.8547C17.2034 25.4686 17.2034 26.4919 17.8685 27.1287L22.9149 31.7221C23.2589 32.0405 23.7177 32.2224 24.1535 32.2224C24.6352 32.2224 25.071 32.0404 25.3921 31.6994L34.1315 23.1492C34.7966 22.5352 34.7737 21.5119 34.0626 20.9434L33.1451 20.1248C32.8011 19.8746 32.4111 19.6927 31.9065 19.6927C31.4707 19.7155 31.0119 19.8974 30.7137 20.2157L24.1076 26.6966ZM25.9885 13.2119C33.0993 13.2119 38.8566 18.9196 38.8566 25.9462C38.8566 32.9728 33.0993 38.7032 25.9885 38.7032C18.8778 38.7032 13.1434 32.9955 13.1434 25.9462C13.1434 18.8968 18.8778 13.2119 25.9885 13.2119Z" fill="#95B422"/>
</svg>
