<svg xmlns="http://www.w3.org/2000/svg" xmlns:xlink="http://www.w3.org/1999/xlink" version="1.1" id="Capa_1" x="0px" y="0px" viewBox="0 0 500 500" style="enable-background:new 0 0 500 500;" xml:space="preserve">
<style type="text/css">
	.st0{fill:#4B4D4F;}
	.st1{fill-rule:evenodd;clip-rule:evenodd;}
	.st2{fill:#045A6E;}
	.st3{fill:#95B422;}
</style>
<polygon class="st0" points="279.44,220.64 279.44,220.64 279.44,220.64 " fill="#25d366"/>
<g>
	<path d="M252.75,55.3c-100.31,0-181.62,81.31-181.62,181.62s81.31,181.62,181.62,181.62s181.62-81.31,181.62-181.62   S353.05,55.3,252.75,55.3z M253.77,339.52c-17.19,0-34.17-4.34-49.37-12.59l-56.54,15.15l15.08-56.25   c-8.54-15.4-13.03-32.66-13.03-50.18c0-57.27,46.6-103.87,103.87-103.87s103.87,46.6,103.87,103.87S311.04,339.52,253.77,339.52z" fill="#25d366"/>
	<path d="M253.77,151.41c-46.45,0-84.24,37.79-84.24,84.24c0,15.34,4.26,30.44,12.32,43.67l2.18,3.59l-8.42,31.41l31.59-8.46   l3.56,2.12c13.07,7.79,27.94,11.91,43,11.91c46.45,0,84.24-37.79,84.24-84.23C338.01,189.19,300.22,151.41,253.77,151.41z    M303.25,267.46c-3.13,7.61-10.92,12.5-18.82,14c-7.54,1.43-13.77-0.97-20.75-3.28c-6.23-2.06-12.24-5.06-17.83-8.48   c-11.18-6.85-20.83-16-28.59-26.54c-2.37-3.22-4.57-6.57-6.59-10.02c-2.68-4.58-5.07-9.39-6.31-14.55   c-0.52-2.14-0.79-4.36-0.82-6.58c-0.09-7.82,2.89-15.7,9.08-20.74c3.58-2.92,8.87-4.19,12.9-1.92c4.37,2.47,6.64,8.69,8.66,13.06   c1.59,3.42,3.38,7.9,2.73,11.74c-0.66,3.84-3.69,7.07-6.11,9.92c-1.63,1.92-1.88,3.56-0.52,5.63c8,13.34,19.12,23.03,33.62,28.8   c1.97,0.79,3.51,0.55,4.79-1.04c2.5-3.09,4.97-9.14,8.83-10.72c5.04-2.06,10.6,0.79,14.88,3.35c3.98,2.38,10.64,5.3,11.71,10.22   C304.64,262.69,304.18,265.2,303.25,267.46z" fill="#25d366"/>
</g>
</svg>