<svg width="22" height="21" viewBox="0 0 22 21" fill="none" xmlns="http://www.w3.org/2000/svg">
<path fill-rule="evenodd" clip-rule="evenodd" d="M11.182 5.36726C8.43636 5.36726 6.19873 7.56155 6.19873 10.254C6.19873 11.1436 6.45273 12.0213 6.9305 12.7863L7.0575 12.9939L6.56159 14.8146L8.43031 14.3224L8.64198 14.4469C9.41608 14.8976 10.293 15.1348 11.188 15.1348C13.9337 15.1348 16.1713 12.9405 16.1713 10.2481C16.1713 7.55562 13.9337 5.36133 11.188 5.36133L11.182 5.36726ZM14.109 12.0984C13.9216 12.5373 13.462 12.8219 12.9963 12.9109C12.5488 12.9939 12.1798 12.8575 11.7686 12.7211C11.3997 12.6025 11.0429 12.4305 10.7163 12.2289C10.0571 11.8315 9.4826 11.2978 9.02298 10.6869C8.88388 10.4972 8.75084 10.3074 8.63593 10.1058C8.47869 9.83888 8.33355 9.56014 8.26098 9.26362C8.23074 9.13907 8.2126 9.0086 8.2126 8.88406C8.2126 8.43334 8.38193 7.97076 8.75084 7.68016C8.9625 7.50818 9.27698 7.43701 9.51284 7.56748C9.77289 7.70982 9.90594 8.07158 10.0269 8.32659C10.1237 8.5223 10.2265 8.78324 10.1902 9.0086C10.1539 9.23396 9.97246 9.41781 9.82732 9.58386C9.73055 9.69654 9.71846 9.79143 9.79708 9.91004C10.2688 10.6869 10.928 11.2444 11.7868 11.5825C11.9017 11.6299 11.9924 11.6121 12.071 11.5231C12.2161 11.3452 12.3673 10.9953 12.5911 10.9004C12.8874 10.7818 13.22 10.9479 13.474 11.0961C13.7099 11.2326 14.103 11.4045 14.1695 11.6892C14.1998 11.8256 14.1695 11.9739 14.1151 12.1043L14.109 12.0984Z" fill="white"/>
<path fill-rule="evenodd" clip-rule="evenodd" d="M10.6983 0C4.78973 0 0 4.69698 0 10.4911C0 16.2852 4.78973 20.9822 10.6983 20.9822C16.6068 20.9822 21.3966 16.2852 21.3966 10.4911C21.3966 4.69698 16.6068 0 10.6983 0ZM11.1821 16.2793C10.1661 16.2793 9.16218 16.0302 8.26108 15.5498L4.91673 16.4276L5.81179 13.1658C5.30378 12.2703 5.04374 11.268 5.04374 10.2539C5.04374 6.93279 7.80146 4.22847 11.1881 4.22847C14.5748 4.22847 17.3325 6.93279 17.3325 10.2539C17.3325 13.575 14.5748 16.2793 11.1881 16.2793H11.1821Z" fill="white"/>
</svg>
