<svg width="26" height="26" viewBox="0 0 26 26" fill="none" xmlns="http://www.w3.org/2000/svg">
<path d="M1.14785 26C0.914518 26 0.747852 25.9333 0.647852 25.8C0.581185 25.6333 0.614518 25.45 0.747852 25.25L8.79785 13.3C8.86452 13.2 8.86452 13.1 8.79785 13L0.747852 1.05C0.681185 0.916666 0.647852 0.799999 0.647852 0.699998C0.647852 0.433333 0.814518 0.3 1.14785 0.3H7.39785C7.69785 0.3 7.93119 0.433333 8.09785 0.699998L12.5979 7.55C12.7312 7.75 12.8479 7.75 12.9479 7.55L17.4479 0.699998C17.6145 0.433333 17.8479 0.3 18.1479 0.3H24.8479C25.0812 0.3 25.2312 0.383333 25.2979 0.55C25.3645 0.683333 25.3312 0.85 25.1979 1.05L17.1979 13C17.1645 13.1 17.1645 13.2 17.1979 13.3L25.1979 25.25C25.2645 25.35 25.2979 25.4667 25.2979 25.6C25.2979 25.8667 25.1479 26 24.8479 26H18.5479C18.2479 26 18.0145 25.8667 17.8479 25.6L13.3479 18.75C13.2479 18.55 13.1479 18.55 13.0479 18.75L8.54785 25.6C8.38119 25.8667 8.14785 26 7.84785 26H1.14785Z" fill="white"/>
</svg>
